<?xml version="1.0" encoding="UTF-8"?>
<svg version="1.1" xmlns="http://www.w3.org/2000/svg" width="512" height="512">
<path d="M0 0 C1.45108658 0.00273422 1.45108658 0.00273422 2.93148804 0.00552368 C17.26440977 0.05095174 31.21023917 0.55983928 45.3125 3.3125 C46.65803955 3.55395752 46.65803955 3.55395752 48.03076172 3.80029297 C107.84088904 14.62287989 165.35495829 48.68064457 202.3125 97.3125 C202.72918945 97.85277832 203.14587891 98.39305664 203.57519531 98.94970703 C211.2584873 108.9447116 218.00092968 119.40459036 224.3125 130.3125 C224.70679199 130.98974121 225.10108398 131.66698242 225.50732422 132.36474609 C238.68961173 155.2833756 247.29510918 180.85822563 252.625 206.6875 C252.77243652 207.39817627 252.91987305 208.10885254 253.07177734 208.84106445 C256.05713787 224.48358366 256.6873098 240.11919606 256.625 256 C256.62226578 257.45108658 256.62226578 257.45108658 256.61947632 258.93148804 C256.57404826 273.26440977 256.06516072 287.21023917 253.3125 301.3125 C253.15152832 302.20952637 252.99055664 303.10655273 252.82470703 304.03076172 C241.67268126 365.66150546 205.99947817 424.16034615 155.3125 461.3125 C154.45857666 461.94961914 154.45857666 461.94961914 153.58740234 462.59960938 C144.8447849 469.11651959 135.78842938 474.92287157 126.3125 480.3125 C125.68069824 480.67698242 125.04889648 481.04146484 124.39794922 481.41699219 C101.37828699 494.59268166 75.85904551 503.27606895 49.9375 508.625 C49.22682373 508.77243652 48.51614746 508.91987305 47.78393555 509.07177734 C32.14141634 512.05713787 16.50580394 512.6873098 0.625 512.625 C-0.34239105 512.62317719 -1.3097821 512.62135437 -2.30648804 512.61947632 C-16.63940977 512.57404826 -30.58523917 512.06516072 -44.6875 509.3125 C-45.58452637 509.15152832 -46.48155273 508.99055664 -47.40576172 508.82470703 C-107.21588904 498.00212011 -164.72995829 463.94435543 -201.6875 415.3125 C-202.10418945 414.77222168 -202.52087891 414.23194336 -202.95019531 413.67529297 C-210.6334873 403.6802884 -217.37592968 393.22040964 -223.6875 382.3125 C-224.08179199 381.63525879 -224.47608398 380.95801758 -224.88232422 380.26025391 C-238.06461173 357.3416244 -246.67010918 331.76677437 -252 305.9375 C-252.14743652 305.22682373 -252.29487305 304.51614746 -252.44677734 303.78393555 C-255.43213787 288.14141634 -256.0623098 272.50580394 -256 256.625 C-255.99817719 255.65760895 -255.99635437 254.6902179 -255.99447632 253.69351196 C-255.94904826 239.36059023 -255.44016072 225.41476083 -252.6875 211.3125 C-252.44604248 209.96696045 -252.44604248 209.96696045 -252.19970703 208.59423828 C-241.37712011 148.78411096 -207.31935543 91.27004171 -158.6875 54.3125 C-158.14722168 53.89581055 -157.60694336 53.47912109 -157.05029297 53.04980469 C-147.0552884 45.3665127 -136.59540964 38.62407032 -125.6875 32.3125 C-125.01025879 31.91820801 -124.33301758 31.52391602 -123.63525391 31.11767578 C-100.7166244 17.93538827 -75.14177437 9.32989082 -49.3125 4 C-48.60182373 3.85256348 -47.89114746 3.70512695 -47.15893555 3.55322266 C-31.51641634 0.56786213 -15.88080394 -0.0623098 0 0 Z M-138.4140625 102.2265625 C-140.5264424 104.1647255 -142.68748072 106.02273271 -144.875 107.875 C-148.88214814 111.37825526 -152.2813695 115.23209469 -155.6875 119.3125 C-156.48414063 120.24449219 -157.28078125 121.17648438 -158.1015625 122.13671875 C-163.32695828 128.30142284 -168.27200227 134.53480184 -172.6875 141.3125 C-173.08549805 141.91739258 -173.48349609 142.52228516 -173.89355469 143.14550781 C-193.32594538 172.92071283 -206.56550823 209.10415333 -206.92578125 244.96484375 C-206.9355751 245.77387146 -206.94536896 246.58289917 -206.95545959 247.41644287 C-207.48590319 302.64463278 -191.736889 353.87868877 -153.7734375 395.0390625 C-151.8352745 397.1514424 -149.97726729 399.31248072 -148.125 401.5 C-144.62174474 405.50714814 -140.76790531 408.9063695 -136.6875 412.3125 C-135.28951172 413.50746094 -135.28951172 413.50746094 -133.86328125 414.7265625 C-127.69857716 419.95195828 -121.46519816 424.89700227 -114.6875 429.3125 C-114.08260742 429.71049805 -113.47771484 430.10849609 -112.85449219 430.51855469 C-83.07928717 449.95094538 -46.89584667 463.19050823 -11.03515625 463.55078125 C-10.22612854 463.5605751 -9.41710083 463.57036896 -8.58355713 463.58045959 C46.64463278 464.11090319 97.87868877 448.361889 139.0390625 410.3984375 C141.1514424 408.4602745 143.31248072 406.60226729 145.5 404.75 C149.50714814 401.24674474 152.9063695 397.39290531 156.3125 393.3125 C157.50746094 391.91451172 157.50746094 391.91451172 158.7265625 390.48828125 C163.95195828 384.32357716 168.89700227 378.09019816 173.3125 371.3125 C173.71049805 370.70760742 174.10849609 370.10271484 174.51855469 369.47949219 C193.95094538 339.70428717 207.19050823 303.52084667 207.55078125 267.66015625 C207.5605751 266.85112854 207.57036896 266.04210083 207.58045959 265.20855713 C208.11090319 209.98036722 192.361889 158.74631123 154.3984375 117.5859375 C152.4602745 115.4735576 150.60226729 113.31251928 148.75 111.125 C145.24674474 107.11785186 141.39290531 103.7186305 137.3125 100.3125 C136.38050781 99.51585937 135.44851563 98.71921875 134.48828125 97.8984375 C128.32357716 92.67304172 122.09019816 87.72799773 115.3125 83.3125 C114.70760742 82.91450195 114.10271484 82.51650391 113.47949219 82.10644531 C83.70428717 62.67405462 47.52084667 49.43449177 11.66015625 49.07421875 C10.85112854 49.0644249 10.04210083 49.05463104 9.20855713 49.04454041 C-46.01963278 48.51409681 -97.25368877 64.263111 -138.4140625 102.2265625 Z " fill="#E2574C" transform="translate(255.6875,-0.3125)"/>
<path d="M0 0 C5.95693001 4.89792023 9.48809154 9.35068363 10.6875 17.1875 C10.9751138 21.9040504 10.97173395 26.61589918 10.9621582 31.33935547 C10.96651165 32.76271836 10.97169689 34.18607892 10.97764587 35.60943604 C10.99097956 39.45664513 10.99162082 43.30375565 10.98908257 47.15098333 C10.98800897 50.37143553 10.99290619 53.59186809 10.997688 56.81231606 C11.00876384 64.41476876 11.00923152 72.01717205 11.00317383 79.61962891 C10.99713588 87.44267582 11.00944489 95.2655428 11.0307439 103.08855903 C11.04840097 109.82343971 11.05435478 116.55826333 11.05110615 123.29316628 C11.04929959 127.30753294 11.0518664 131.32177125 11.06582069 135.33611679 C11.07846141 139.11355867 11.07639649 142.89072154 11.06340981 146.66815948 C11.0599437 148.70105223 11.07117596 150.73395374 11.08297729 152.76681519 C11.03340658 161.46393194 10.33401329 169.06205281 5.5625 176.5 C-2.54640394 184.08006238 -12.36769679 187.04789792 -23.3125 187.1875 C-33.21462627 186.54481392 -42.66266115 184.3652737 -49.75 177 C-55.91481491 168.61766963 -55.74694669 158.81546304 -55.70068359 148.80859375 C-55.70475701 147.38493448 -55.71010319 145.96127838 -55.71661377 144.53762817 C-55.73020179 140.69874835 -55.72502428 136.86011246 -55.71547651 133.02122879 C-55.70783545 128.98737217 -55.71493779 124.95353525 -55.71963501 120.91967773 C-55.72507969 114.14791142 -55.71793488 107.37624353 -55.70361328 100.60449219 C-55.68728922 92.79616246 -55.69257864 84.98806781 -55.7090925 77.17974377 C-55.7227442 70.45330652 -55.72460908 63.72693969 -55.71677649 57.00049305 C-55.71212015 52.99287378 -55.71141854 48.9853647 -55.72138596 44.97775269 C-55.73010723 41.20847547 -55.72394056 37.4394988 -55.70670319 33.67025375 C-55.70090035 31.64216261 -55.70970962 29.61404579 -55.71908569 27.58596802 C-55.66160993 19.24425023 -54.92751587 11.78992792 -50.75 4.4375 C-37.55057526 -7.74658438 -15.06199141 -10.64678799 0 0 Z " fill="#E2574C" transform="translate(278.3125,117.8125)"/>
<path d="M0 0 C0.62132812 0.391875 1.24265625 0.78375 1.8828125 1.1875 C2.50414062 1.538125 3.12546875 1.88875 3.765625 2.25 C10.62521869 6.52611035 14.82446272 13.4804369 16.8828125 21.1875 C17.89976824 32.59868939 17.01749318 41.38011809 9.5703125 50.4375 C3.68884775 56.74625065 -2.02149683 60.62251937 -10.78125 61.59375 C-22.09552721 61.86154354 -30.50995403 59.72824326 -39.1171875 51.8125 C-46.74198496 43.44381986 -47.80419816 33.98130271 -47.30078125 23.10498047 C-46.90165756 18.93647325 -45.32086459 15.68148801 -43.1171875 12.1875 C-42.7665625 11.56617188 -42.4159375 10.94484375 -42.0546875 10.3046875 C-33.73233229 -3.04575731 -13.65305461 -7.47543675 0 0 Z " fill="#E2574C" transform="translate(271.1171875,338.8125)"/>
</svg>
