<?xml version="1.0" encoding="UTF-8"?>
<!DOCTYPE svg PUBLIC "-//W3C//DTD SVG 1.1//EN" "http://www.w3.org/Graphics/SVG/1.1/DTD/svg11.dtd">
<svg xmlns="http://www.w3.org/2000/svg" version="1.1" width="512px" height="512px" style="shape-rendering:geometricPrecision; text-rendering:geometricPrecision; image-rendering:optimizeQuality; fill-rule:evenodd; clip-rule:evenodd" xmlns:xlink="http://www.w3.org/1999/xlink">
<g><path style="opacity:0.962" fill="#f29c1e" d="M 89.5,-0.5 C 92.1667,-0.5 94.8333,-0.5 97.5,-0.5C 99.9015,0.745833 101.401,2.74583 102,5.5C 102.667,12.8333 102.667,20.1667 102,27.5C 100.592,31.7218 97.5922,34.0552 93,34.5C 89.1864,34.0186 86.5197,32.0186 85,28.5C 84.3333,20.5 84.3333,12.5 85,4.5C 86.025,2.31305 87.525,0.646381 89.5,-0.5 Z"/></g>
<g><path style="opacity:0.97" fill="#f29f1e" d="M 28.5,24.5 C 31.5184,24.3354 34.5184,24.502 37.5,25C 45.0242,30.1828 50.6909,36.8495 54.5,45C 52.7734,52.8624 48.1067,55.529 40.5,53C 35.6994,49.201 31.1994,45.0343 27,40.5C 23.2937,34.6975 23.7937,29.3642 28.5,24.5 Z"/></g>
<g><path style="opacity:0.966" fill="#f19c1f" d="M 149.5,24.5 C 159.158,22.9934 163.325,26.9934 162,36.5C 156.543,43.9631 149.876,49.9631 142,54.5C 132.891,52.1799 130.558,46.8466 135,38.5C 139.729,33.6025 144.562,28.9359 149.5,24.5 Z"/></g>
<g><path style="opacity:0.986" fill="#f0c418" d="M 84.5,50.5 C 111.969,48.1257 129.135,60.1257 136,86.5C 137.761,112.828 125.928,129.328 100.5,136C 74.3576,138.174 57.8576,126.674 51,101.5C 48.4182,75.282 59.5849,58.282 84.5,50.5 Z"/></g>
<g><path style="opacity:0.962" fill="#f29c1e" d="M -0.5,97.5 C -0.5,94.8333 -0.5,92.1667 -0.5,89.5C 0.646381,87.525 2.31305,86.025 4.5,85C 12.5,84.3333 20.5,84.3333 28.5,85C 34.5924,88.6153 35.759,93.4487 32,99.5C 30.8289,100.893 29.3289,101.727 27.5,102C 20.1667,102.667 12.8333,102.667 5.5,102C 2.74583,101.401 0.745833,99.9015 -0.5,97.5 Z"/></g>
<g><path style="opacity:0.96" fill="#f29c1e" d="M 157.5,84.5 C 165.84,84.3336 174.173,84.5003 182.5,85C 187.155,87.8966 188.655,92.0633 187,97.5C 185.773,99.7261 183.939,101.226 181.5,102C 173.833,102.667 166.167,102.667 158.5,102C 150.866,96.6659 150.533,90.8325 157.5,84.5 Z"/></g>
<g><path style="opacity:0.969" fill="#f29c1e" d="M 42.5,132.5 C 52.1161,132.763 55.6161,137.43 53,146.5C 48.1667,151.333 43.3333,156.167 38.5,161C 27.8483,164.347 23.3483,160.514 25,149.5C 30.0671,142.931 35.9004,137.265 42.5,132.5 Z"/></g>
<g><path style="opacity:0.969" fill="#f29f1e" d="M 139.5,132.5 C 143.331,132.249 146.664,133.416 149.5,136C 153,139.5 156.5,143 160,146.5C 165.307,157.728 161.807,162.895 149.5,162C 144.888,157.932 140.388,153.765 136,149.5C 130.731,142.34 131.898,136.673 139.5,132.5 Z"/></g>
<g><path style="opacity:0.963" fill="#f29c1e" d="M 90.5,152.5 C 95.814,151.74 99.6473,153.74 102,158.5C 102.667,166.167 102.667,173.833 102,181.5C 99.5976,187.092 95.4309,188.925 89.5,187C 87.3333,186.167 85.8333,184.667 85,182.5C 84.3333,174.167 84.3333,165.833 85,157.5C 86.7297,155.598 88.563,153.931 90.5,152.5 Z"/></g>
<g><path style="opacity:1" fill="#f19c1e" d="M 402.5,178.5 C 366.167,204.331 354.667,238.664 368,281.5C 373.837,320.012 363.67,353.512 337.5,382C 328.547,385.039 324.047,381.872 324,372.5C 345.483,349.052 354.816,321.385 352,289.5C 345.181,268.514 343.848,247.181 348,225.5C 352.694,209.021 360.527,194.354 371.5,181.5C 381.671,179.058 392.004,178.058 402.5,178.5 Z"/></g>
<g><path style="opacity:0.997" fill="#f0c319" d="M 402.5,178.5 C 437.803,180.532 467.303,194.532 491,220.5C 497.08,226.658 501.08,233.991 503,242.5C 503.5,309.499 503.667,376.499 503.5,443.5C 469.404,443.416 435.404,441.582 401.5,438C 366.092,433.753 332.759,423.086 301.5,406C 280.833,393.333 260.167,380.667 239.5,368C 225.938,360.052 211.938,352.885 197.5,346.5C 196.502,336.856 196.168,327.19 196.5,317.5C 196.5,317.167 196.5,316.833 196.5,316.5C 227.166,291.009 256.499,263.843 284.5,235C 302.485,218.347 322.152,204.013 343.5,192C 352.508,187.609 361.841,184.109 371.5,181.5C 360.527,194.354 352.694,209.021 348,225.5C 343.848,247.181 345.181,268.514 352,289.5C 354.816,321.385 345.483,349.052 324,372.5C 324.047,381.872 328.547,385.039 337.5,382C 363.67,353.512 373.837,320.012 368,281.5C 354.667,238.664 366.167,204.331 402.5,178.5 Z"/></g>
<g><path style="opacity:0.997" fill="#50ba6e" d="M 196.5,316.5 C 196.5,316.833 196.5,317.167 196.5,317.5C 195.502,347.995 195.169,378.662 195.5,409.5C 167.167,409.5 138.833,409.5 110.5,409.5C 110.816,394.755 110.483,380.088 109.5,365.5C 110.826,343.931 110.826,322.264 109.5,300.5C 109.256,290.792 109.756,281.126 111,271.5C 119.09,246.427 136.257,235.594 162.5,239C 182.096,243.932 193.263,256.432 196,276.5C 196.5,289.829 196.667,303.163 196.5,316.5 Z"/></g>
<g><path style="opacity:1" fill="#ecc31b" d="M 150.5,272.5 C 161.401,273.545 164.067,278.712 158.5,288C 149.577,291.074 145.077,287.908 145,278.5C 146.36,275.977 148.193,273.977 150.5,272.5 Z"/></g>
<g><path style="opacity:0.996" fill="#25ae5e" d="M 109.5,300.5 C 110.826,322.264 110.826,343.931 109.5,365.5C 93.9125,354.448 78.7458,342.781 64,330.5C 60.0942,324.389 58.5942,317.722 59.5,310.5C 63.6617,293.901 74.3283,287.068 91.5,290C 98.1458,292.498 104.146,295.998 109.5,300.5 Z"/></g>
<g><path style="opacity:0.999" fill="#f2d45a" d="M 59.5,310.5 C 58.5942,317.722 60.0942,324.389 64,330.5C 78.7458,342.781 93.9125,354.448 109.5,365.5C 110.483,380.088 110.816,394.755 110.5,409.5C 102.721,409.068 95.0542,409.568 87.5,411C 82.9039,417.086 83.9039,422.086 90.5,426C 111.167,426.167 131.833,426.333 152.5,426.5C 174.228,426.651 195.895,426.151 217.5,425C 222.343,420.62 222.677,415.954 218.5,411C 210.946,409.568 203.279,409.068 195.5,409.5C 195.169,378.662 195.502,347.995 196.5,317.5C 196.168,327.19 196.502,336.856 197.5,346.5C 211.938,352.885 225.938,360.052 239.5,368C 260.167,380.667 280.833,393.333 301.5,406C 332.759,423.086 366.092,433.753 401.5,438C 435.404,441.582 469.404,443.416 503.5,443.5C 503.93,457.892 503.43,472.226 502,486.5C 498.237,495.265 491.737,500.765 482.5,503C 329.791,503.994 177.124,503.661 24.5,502C 15.7346,498.237 10.2346,491.737 8,482.5C 7.33333,428.5 7.33333,374.5 8,320.5C 10.3376,311.832 16.0042,307.165 25,306.5C 36.6237,307.151 48.1237,308.484 59.5,310.5 Z"/></g>
<g><path style="opacity:1" fill="#ebc31c" d="M 150.5,306.5 C 158.523,306.683 162.023,310.683 161,318.5C 158.459,323.069 154.625,324.569 149.5,323C 142.644,317.1 142.977,311.6 150.5,306.5 Z"/></g>
<g><path style="opacity:1" fill="#eac31d" d="M 150.5,340.5 C 158.523,340.683 162.023,344.683 161,352.5C 158.459,357.069 154.625,358.569 149.5,357C 142.632,351.144 142.965,345.644 150.5,340.5 Z"/></g>
<g><path style="opacity:1" fill="#edc31b" d="M 149.5,375.5 C 156.304,374.221 160.304,376.888 161.5,383.5C 161.096,388.737 158.263,391.403 153,391.5C 146.231,390.9 143.565,387.234 145,380.5C 146.025,378.313 147.525,376.646 149.5,375.5 Z"/></g>
<g><path style="opacity:1" fill="#f0c41a" d="M 110.5,409.5 C 138.833,409.5 167.167,409.5 195.5,409.5C 203.279,409.068 210.946,409.568 218.5,411C 222.677,415.954 222.343,420.62 217.5,425C 195.895,426.151 174.228,426.651 152.5,426.5C 131.833,426.333 111.167,426.167 90.5,426C 83.9039,422.086 82.9039,417.086 87.5,411C 95.0542,409.568 102.721,409.068 110.5,409.5 Z"/></g>
</svg>
