<?xml version="1.0" encoding="UTF-8"?>
<svg version="1.1" xmlns="http://www.w3.org/2000/svg" width="512" height="512">
<path d="M0 0 C1.36146229 -0.00506145 2.72291787 -0.01230249 4.08435851 -0.02149814 C7.77864895 -0.04022023 11.47226671 -0.02830227 15.16653883 -0.01077521 C19.16862068 0.00270413 23.17061083 -0.01287563 27.17268372 -0.02459717 C34.99336271 -0.04289849 42.81379052 -0.03451261 50.63446148 -0.01650894 C56.99319094 -0.00244003 63.35185256 0.00140067 69.71059608 -0.00195122 C70.61819291 -0.00242866 71.52578973 -0.0029061 72.46088949 -0.00339801 C74.30505072 -0.00442441 76.14921194 -0.00547978 77.99337313 -0.00656378 C94.27003093 -0.01511526 110.546568 0.00149527 126.82319641 0.03126526 C142.59603441 0.06011316 158.36869863 0.06717741 174.14155579 0.05177307 C191.34638735 0.03499306 208.55113656 0.03099394 225.7559703 0.04848343 C227.59214357 0.0503277 229.42831684 0.05216243 231.26449013 0.0539875 C232.6194085 0.05535564 232.6194085 0.05535564 234.00169897 0.05675141 C240.3501732 0.06234452 246.69860706 0.05906122 253.04707909 0.05244255 C260.7872418 0.04469274 268.52723378 0.05152157 276.2673622 0.07661759 C280.21223229 0.08907286 284.15683708 0.09530766 288.101717 0.08407593 C291.71952008 0.07397023 295.33679626 0.08262593 298.9545357 0.10565711 C300.86862429 0.1131872 302.78275965 0.10132596 304.69682044 0.08855337 C319.00607032 0.22475304 333.42420498 5.49585493 343.78681946 15.62818909 C353.89144382 26.53216507 359.84001853 39.49375084 360.20088196 54.40943909 C360.22993118 55.45786987 360.22993118 55.45786987 360.25956726 56.52748108 C360.31864096 58.72759873 360.36545419 60.9277708 360.41181946 63.12818909 C360.45006602 64.63341837 360.48912147 66.13862734 360.52900696 67.64381409 C360.6242807 71.30508478 360.70857302 74.96651031 360.78681946 78.62818909 C361.88985413 78.3043927 362.99288879 77.98059631 364.12934875 77.64698792 C372.19493681 75.40029551 380.17977496 76.14916314 387.78681946 79.62818909 C392.97280211 82.70251413 397.86625999 86.15012816 402.78681946 89.62818909 C404.39015302 90.7452712 405.99435415 91.8611089 407.59931946 92.97584534 C411.83704837 95.92460008 416.06214296 98.89085915 420.28242493 101.86451721 C422.74134283 103.59616304 425.20320107 105.32355239 427.66572571 107.05006409 C429.18537361 108.11760639 430.70491023 109.18530712 432.22431946 110.25318909 C432.91574036 110.73771545 433.60716125 111.22224182 434.3195343 111.72145081 C444.73992265 119.06314695 444.73992265 119.06314695 448.03681946 124.19068909 C448.53697571 124.95510315 449.03713196 125.71951721 449.55244446 126.50709534 C452.54510139 131.64954063 452.08233436 136.97245486 452.16181946 142.75318909 C452.19920227 143.76123596 452.23658508 144.76928284 452.27510071 145.80787659 C452.3603827 153.12317622 450.92974387 157.64606551 446.78681946 163.62818909 C446.29246399 164.37036682 445.79810852 165.11254456 445.28877258 165.87721252 C443.67547883 168.25677033 442.01922957 170.60055576 440.34931946 172.94068909 C439.10050334 174.70753263 437.85180884 176.47446214 436.60322571 178.24147034 C435.96916809 179.13559631 435.33511047 180.02972229 434.68183899 180.95094299 C431.69938414 185.16449618 428.74390203 189.39681131 425.78681946 193.62818909 C424.62029496 195.29495526 423.45362797 196.96162172 422.28681946 198.62818909 C421.42056946 199.86568909 421.42056946 199.86568909 420.53681946 201.12818909 C387.28681945 248.62818909 387.28681945 248.62818909 385.53388977 251.13233948 C384.37694496 252.78514087 383.22004333 254.43797249 382.06318665 256.09083557 C378.99814416 260.46990036 375.93217125 264.84831016 372.86494446 269.22584534 C372.2242804 270.14043518 371.58361633 271.05502502 370.92353821 271.99732971 C369.69204226 273.7553348 368.4602834 275.51315576 367.22822571 277.27076721 C366.6752179 278.06031799 366.12221008 278.84986877 365.55244446 279.66334534 C364.82202942 280.70567322 364.82202942 280.70567322 364.07685852 281.76905823 C361.00957216 286.18945672 360.53665121 288.32389775 360.53526306 293.73497009 C360.53229292 294.46340044 360.52932278 295.19183078 360.52626264 295.94233477 C360.51860678 298.39027049 360.52512331 300.83796737 360.53144836 303.28590393 C360.52869902 305.03863183 360.52501947 306.79135847 360.52047729 308.54408264 C360.51235504 312.32383785 360.51019952 316.10353387 360.51242447 319.88329697 C360.51525629 325.86883629 360.50090793 331.85425742 360.48344421 337.83976746 C360.43641269 354.86248477 360.41249549 371.88519487 360.40596008 388.90797424 C360.40219974 398.30575208 360.38408722 407.70339689 360.35086572 417.10111773 C360.33072468 423.04111818 360.32824649 428.98077378 360.3391459 434.92079425 C360.34176853 438.6340822 360.32767257 442.34717303 360.30906487 446.06040955 C360.30377911 447.77070519 360.30517706 449.48103798 360.31410027 451.19131851 C360.39720052 468.5309186 356.73774993 483.88026807 344.41181946 496.81568909 C333.88443302 507.30939328 320.05155875 512.81934503 305.34222698 512.90966219 C304.09272668 512.9072471 302.84322638 512.90483202 301.55586243 512.90234375 C300.20344911 512.90679993 298.85103839 512.91211522 297.49863148 512.91821247 C293.79226809 512.93235795 290.0859887 512.93405642 286.37960219 512.93361557 C282.37802007 512.93526687 278.37647224 512.94833942 274.37490845 512.95980835 C265.62872744 512.98263521 256.88257074 512.99057678 248.13636398 512.99563479 C242.67053111 512.99889513 237.20470525 513.00541974 231.73887634 513.01263618 C216.59267402 513.03220071 201.44647822 513.04860525 186.30026245 513.05151272 C184.84702522 513.05179407 184.84702522 513.05179407 183.36442965 513.05208111 C181.40054035 513.05244735 179.43665105 513.05281105 177.47276175 513.05317222 C176.01052744 513.05344644 176.01052744 513.05344644 174.51875305 513.0537262 C173.05472441 513.05399702 173.05472441 513.05399702 171.56111944 513.05427331 C155.75774623 513.05781247 139.95450951 513.08481932 124.15118361 513.12222409 C107.90921404 513.16035794 91.66731209 513.17967058 75.42529678 513.17997223 C66.31288697 513.18055573 57.20063988 513.18897805 48.08827209 513.21796989 C40.32641234 513.24255203 32.56477464 513.24972091 24.80288643 513.23472237 C20.84749651 513.22758073 16.89254446 513.22829089 12.93720436 513.25113297 C9.30591022 513.27190136 5.67538556 513.26895923 2.04409814 513.24825812 C0.1298237 513.2431753 -1.78446956 513.26240514 -3.69864082 513.28291982 C-17.09741278 513.15496162 -28.78778475 509.1860792 -39.21318054 500.62818909 C-40.20060242 499.85217346 -41.18802429 499.07615784 -42.20536804 498.27662659 C-45.21510577 495.7476274 -47.49092971 492.96573676 -49.77568054 489.75318909 C-50.4988446 488.76576721 -51.22200867 487.77834534 -51.96708679 486.76100159 C-58.94486151 475.07639923 -59.94460055 463.12250529 -59.84809875 449.90455627 C-59.85387267 448.16162684 -59.86182226 446.41870351 -59.87173498 444.67579269 C-59.89245721 439.92700924 -59.88236029 435.17873322 -59.86680388 430.42994881 C-59.85543394 425.29282962 -59.87298094 420.15579424 -59.88670349 415.01869202 C-59.90888043 404.9711619 -59.90415944 394.92381905 -59.88964029 384.87628174 C-59.87832619 376.70693939 -59.87682653 368.53764934 -59.88225937 360.36830139 C-59.88302553 359.20346214 -59.8837917 358.03862289 -59.88458108 356.83848548 C-59.88617979 354.47178044 -59.88780085 352.10507542 -59.88944404 349.73837042 C-59.90368531 327.57086884 -59.88733427 305.40347082 -59.86044221 283.23598623 C-59.83810494 264.23515826 -59.84198552 245.23448305 -59.86503601 226.23365784 C-59.89182267 204.14286918 -59.90231216 182.05217119 -59.88697469 159.96136856 C-59.88538203 157.60360465 -59.88381017 155.24584072 -59.88225937 152.88807678 C-59.88148799 151.72815775 -59.88071661 150.56823871 -59.87992186 149.37317061 C-59.87561347 141.218205 -59.88287284 133.06329712 -59.89465714 124.90834045 C-59.90871251 114.96360705 -59.90481835 105.01907085 -59.87825342 95.07435989 C-59.86515615 90.00507002 -59.85989285 84.93610838 -59.87649918 79.86682129 C-59.89149678 75.2181438 -59.88305022 70.57009602 -59.85661142 65.92147493 C-59.85106776 64.2480533 -59.85377327 62.57457746 -59.86599036 60.90119123 C-59.96896769 45.61269303 -57.19072381 32.78303523 -47.21318054 20.62818909 C-46.43716492 19.64076721 -45.66114929 18.65334534 -44.86161804 17.63600159 C-42.33261886 14.62626386 -39.55072822 12.35043992 -36.33818054 10.06568909 C-35.35075867 9.34252502 -34.36333679 8.61936096 -33.34599304 7.87428284 C-23.01423613 1.65816142 -11.84083287 -0.11410183 0 0 Z " fill="#DEDEDC" transform="translate(60.21318054199219,-0.6281890869140625)"/>
<path d="M0 0 C1.36146229 -0.00506145 2.72291787 -0.01230249 4.08435851 -0.02149814 C7.77864895 -0.04022023 11.47226671 -0.02830227 15.16653883 -0.01077521 C19.16862068 0.00270413 23.17061083 -0.01287563 27.17268372 -0.02459717 C34.99336271 -0.04289849 42.81379052 -0.03451261 50.63446148 -0.01650894 C56.99319094 -0.00244003 63.35185256 0.00140067 69.71059608 -0.00195122 C70.61819291 -0.00242866 71.52578973 -0.0029061 72.46088949 -0.00339801 C74.30505072 -0.00442441 76.14921194 -0.00547978 77.99337313 -0.00656378 C94.27003093 -0.01511526 110.546568 0.00149527 126.82319641 0.03126526 C142.59603441 0.06011316 158.36869863 0.06717741 174.14155579 0.05177307 C191.34638735 0.03499306 208.55113656 0.03099394 225.7559703 0.04848343 C227.59214357 0.0503277 229.42831684 0.05216243 231.26449013 0.0539875 C232.6194085 0.05535564 232.6194085 0.05535564 234.00169897 0.05675141 C240.3501732 0.06234452 246.69860706 0.05906122 253.04707909 0.05244255 C260.7872418 0.04469274 268.52723378 0.05152157 276.2673622 0.07661759 C280.21223229 0.08907286 284.15683708 0.09530766 288.101717 0.08407593 C291.71952008 0.07397023 295.33679626 0.08262593 298.9545357 0.10565711 C300.86862429 0.1131872 302.78275965 0.10132596 304.69682044 0.08855337 C319.00607032 0.22475304 333.42420498 5.49585493 343.78681946 15.62818909 C353.89144382 26.53216507 359.84001853 39.49375084 360.20088196 54.40943909 C360.22993118 55.45786987 360.22993118 55.45786987 360.25956726 56.52748108 C360.31864096 58.72759873 360.36545419 60.9277708 360.41181946 63.12818909 C360.45006602 64.63341837 360.48912147 66.13862734 360.52900696 67.64381409 C360.6242807 71.30508478 360.70857302 74.96651031 360.78681946 78.62818909 C361.88985413 78.3043927 362.99288879 77.98059631 364.12934875 77.64698792 C372.19493681 75.40029551 380.17977496 76.14916314 387.78681946 79.62818909 C392.97280211 82.70251413 397.86625999 86.15012816 402.78681946 89.62818909 C404.39015302 90.7452712 405.99435415 91.8611089 407.59931946 92.97584534 C411.83704837 95.92460008 416.06214296 98.89085915 420.28242493 101.86451721 C422.74134283 103.59616304 425.20320107 105.32355239 427.66572571 107.05006409 C429.18537361 108.11760639 430.70491023 109.18530712 432.22431946 110.25318909 C432.91574036 110.73771545 433.60716125 111.22224182 434.3195343 111.72145081 C444.73992265 119.06314695 444.73992265 119.06314695 448.03681946 124.19068909 C448.53697571 124.95510315 449.03713196 125.71951721 449.55244446 126.50709534 C452.54510139 131.64954063 452.08233436 136.97245486 452.16181946 142.75318909 C452.19920227 143.76123596 452.23658508 144.76928284 452.27510071 145.80787659 C452.3603827 153.12317622 450.92974387 157.64606551 446.78681946 163.62818909 C446.29246399 164.37036682 445.79810852 165.11254456 445.28877258 165.87721252 C443.67547883 168.25677033 442.01922957 170.60055576 440.34931946 172.94068909 C439.10050334 174.70753263 437.85180884 176.47446214 436.60322571 178.24147034 C435.96916809 179.13559631 435.33511047 180.02972229 434.68183899 180.95094299 C431.69938414 185.16449618 428.74390203 189.39681131 425.78681946 193.62818909 C424.62029496 195.29495526 423.45362797 196.96162172 422.28681946 198.62818909 C421.42056946 199.86568909 421.42056946 199.86568909 420.53681946 201.12818909 C409.45348612 216.96152242 398.37015279 232.79485575 387.28681946 248.62818909 C386.70867493 249.45423645 386.1305304 250.28028381 385.53486633 251.13136292 C384.37519123 252.78778711 383.21503963 254.44387782 382.05439758 256.09962463 C379.02664501 260.42030248 376.00889097 264.74751753 373.00556946 269.08522034 C372.38295227 269.98176331 371.76033508 270.87830627 371.11885071 271.80201721 C369.93605667 273.5055937 368.75615548 275.21118404 367.57978821 276.91920471 C365.10781753 280.47376875 362.61605217 283.90656873 359.75556946 287.15943909 C356.40328473 290.97579337 353.6094775 295.09956695 350.78681946 299.31568909 C349.64323815 301.00513457 348.49867383 302.69391499 347.35322571 304.38209534 C346.7668634 305.24721741 346.1805011 306.11233948 345.57637024 307.00367737 C342.66147505 311.27859188 339.6955024 315.51727919 336.72431946 319.75318909 C336.13844055 320.58874329 335.55256165 321.42429749 334.94892883 322.28517151 C330.75426949 328.2611644 326.54525611 334.22699135 322.33003235 340.18849182 C319.03074601 344.85714878 315.7482085 349.53724477 312.47383118 354.22340393 C310.11549594 357.5972659 307.75173828 360.96731598 305.38838196 364.33766174 C303.95187458 366.39213007 302.52431179 368.45244734 301.09931946 370.51490784 C295.18051457 379.02318986 288.71229389 386.91927836 281.78681946 394.62818909 C280.82582336 395.71680237 280.82582336 395.71680237 279.84541321 396.82740784 C269.47003117 407.89912424 256.17427535 416.67988983 242.78681946 423.62818909 C242.1967511 423.93498596 241.60668274 424.24178284 240.99873352 424.55787659 C237.08711131 426.57947311 233.14529955 428.53392044 229.18574524 430.45973206 C227.44252578 431.30881086 225.70161365 432.16263184 223.96211243 433.01930237 C220.90780702 434.52252779 217.84803298 436.01408824 214.78681946 437.50318909 C213.81945862 437.97990051 212.85209778 438.45661194 211.85542297 438.94776917 C203.12790256 443.15920409 195.50119714 445.87335493 185.78681946 443.62818909 C177.046146 440.52125354 171.74212273 435.66997195 167.41181946 427.56568909 C162.94921422 416.17683995 166.26782525 400.9869179 167.47431946 389.06568909 C167.60578873 387.74431946 167.60578873 387.74431946 167.73991394 386.39625549 C169.22263429 371.71483864 171.10501053 357.25669373 176.36470032 343.38014221 C176.63189377 342.67345398 176.89908722 341.96676575 177.17437744 341.23866272 C177.37648331 340.70720642 177.57858917 340.17575012 177.78681946 339.62818909 C176.955602 339.63003267 176.12438454 339.63187626 175.26797867 339.63377571 C155.05450795 339.67791992 134.84104553 339.71102869 114.62753677 339.73181343 C104.85248841 339.7421316 95.07747219 339.75620227 85.30244446 339.77906799 C76.78380015 339.79898531 68.26517912 339.81190159 59.74651217 339.81636608 C55.2348052 339.81897627 50.72316484 339.82512258 46.21147919 339.8396492 C41.96638928 339.85320692 37.72139353 339.8574154 33.47628403 339.85440445 C31.91700352 339.85495542 30.35771991 339.85894365 28.7984581 339.86660004 C26.67151718 339.87653305 24.54493298 339.87416412 22.41798401 339.86869812 C20.63154921 339.8714635 20.63154921 339.8714635 18.80902481 339.87428474 C15.84388981 339.63283628 14.21998039 339.29595682 11.78681946 337.62818909 C9.45932601 334.13694892 9.2838263 332.73596658 9.78681946 328.62818909 C11.38103294 326.45969677 11.38103294 326.45969677 13.78681946 324.62818909 C16.90603065 324.18348408 16.90603065 324.18348408 20.65440369 324.26156616 C21.34496963 324.27014308 22.03553557 324.27872 22.74702775 324.28755683 C25.06132294 324.32077934 27.37398946 324.38257106 29.68769836 324.44386292 C31.34688557 324.47282293 33.00610903 324.49976594 34.6653595 324.52484131 C38.23963388 324.58156206 41.81346737 324.64941107 45.38739395 324.72487831 C51.04421432 324.84103926 56.70104414 324.91273906 62.35868835 324.97454834 C64.29666368 324.99624213 66.23463861 325.0179719 68.17261314 325.03973675 C69.62847458 325.05604596 69.62847458 325.05604596 71.11374736 325.07268465 C84.28380484 325.22374333 97.45232863 325.41140137 110.62031555 325.69093323 C119.50438997 325.87917181 128.38711011 326.00644805 137.27301347 326.06501216 C141.97381646 326.09855621 146.66953717 326.16333895 151.36847305 326.303339 C169.4941487 327.80164887 169.4941487 327.80164887 186.30576515 322.96578789 C190.00234175 319.03425897 191.80308496 314.76409393 193.18463707 309.60484314 C194.01762642 306.87056894 195.47804731 304.83345219 197.22041321 302.59303284 C197.72508118 301.90789612 198.22974915 301.2227594 198.74971008 300.51686096 C199.23633118 299.87297424 199.72295227 299.22908752 200.22431946 298.56568909 C204.44622029 292.90078878 208.51645458 287.14946252 212.50971985 281.3217926 C213.01827766 280.5807856 213.52683548 279.83977859 214.05080414 279.07631683 C215.29675195 277.26069097 216.54207307 275.44463873 217.78681946 273.62818909 C216.21530813 273.62737194 216.21530813 273.62737194 214.6120491 273.62653828 C189.14100164 273.61215437 163.67012531 273.56918559 138.19917679 273.49609852 C125.8816911 273.46141883 113.56431768 273.43608908 101.2467804 273.43263245 C90.51306004 273.4295967 79.77953945 273.4091587 69.04589629 273.36766452 C63.36041893 273.34629752 57.67522585 273.33375295 51.98970795 273.34203529 C46.64129252 273.34955193 41.29345422 273.33384985 35.94514465 273.30012894 C33.97952221 273.29186682 32.01384268 273.29217945 30.0482254 273.30159187 C27.3689526 273.31315419 24.69159012 273.29418812 22.01246643 273.26742554 C21.23036434 273.2780988 20.44826226 273.28877205 19.64246011 273.29976875 C15.82449802 273.22836621 14.12520267 272.93955751 11.27271652 270.31479931 C9.78681946 267.62818909 9.78681946 267.62818909 9.78681946 264.00318909 C10.78681946 260.62818909 10.78681946 260.62818909 12.31416321 258.93502235 C15.91836637 257.03015078 19.37541394 257.26384703 23.34931946 257.34385681 C24.22223413 257.3492046 25.09514879 257.3545524 25.99451542 257.36006224 C28.92558557 257.38125133 31.85597802 257.42367682 34.78681946 257.46559143 C36.88612582 257.48440258 38.98544667 257.50165284 41.08477783 257.51745605 C45.60997349 257.55320781 50.13500478 257.59679676 54.66007996 257.64541245 C61.8214877 257.71900937 68.98276746 257.7550151 76.14448547 257.78190613 C77.35330037 257.78660805 78.56211527 257.79130997 79.80756092 257.79615438 C82.27973651 257.80570005 84.75191243 257.8151595 87.22408867 257.82453465 C103.89786808 257.88934387 120.57053924 257.97901551 137.24336243 258.17311096 C148.48856446 258.30373701 159.73236939 258.37384909 170.9783535 258.37471545 C176.92818652 258.37760776 182.8742636 258.41129706 188.82319641 258.51910019 C194.42577671 258.62017782 200.02308687 258.64130966 205.62639046 258.60254097 C207.67596676 258.60238962 209.72579211 258.63111135 211.77447319 258.69168282 C222.43025271 259.23783371 222.43025271 259.23783371 231.77894402 254.95523119 C235.40666056 250.90272631 238.12882086 246.42392183 240.68399429 241.6410954 C242.15398284 238.95803256 243.89706975 236.51445066 245.70478821 234.05006409 C246.79497749 232.49301429 247.88483798 230.93573422 248.97431946 229.37818909 C249.51250305 228.60990784 250.05068665 227.84162659 250.60517883 227.05006409 C253.91969744 222.3139247 257.21753027 217.56645597 260.50679016 212.8127594 C260.92016884 212.21549042 261.33354752 211.61822144 261.75945282 211.00285339 C262.76865457 209.544687 263.77774821 208.08644579 264.78681946 206.62818909 C263.50299535 206.63279805 262.21917124 206.63740702 260.89644337 206.64215565 C230.42985318 206.75041481 199.96331485 206.83287649 169.49657853 206.88351573 C165.74770343 206.88976936 161.99882872 206.89624097 158.24995422 206.90284729 C157.13044101 206.90481462 157.13044101 206.90481462 155.98831137 206.90682169 C143.89922166 206.9285859 131.81025068 206.96801296 119.72123144 207.01395307 C107.31932861 207.06068956 94.91748801 207.08847852 82.51550072 207.09863156 C74.86103473 207.1054966 67.20690429 207.1271887 59.55254158 207.16777142 C53.68590188 207.19729378 47.81943497 207.20047031 41.95271873 207.19372749 C39.54402472 207.19510612 37.13531832 207.20509249 34.72669983 207.22421646 C31.44368078 207.24901032 28.1621098 207.24314304 24.87905884 207.22946167 C23.44179954 207.25130798 23.44179954 207.25130798 21.9755047 207.27359563 C17.41819621 207.22208689 15.4218679 207.10949465 11.69121075 204.2820158 C9.78681946 201.62818909 9.78681946 201.62818909 9.22431946 198.56568909 C9.94947402 194.77877084 10.62604962 193.85788325 13.78681946 191.62818909 C17.23584465 191.04524598 20.65087887 191.14737791 24.14035034 191.21014404 C25.73867113 191.2147674 25.73867113 191.2147674 27.36928123 191.21948415 C30.95227442 191.23434981 34.53438043 191.27761131 38.11714172 191.32032776 C40.68112087 191.3361447 43.2451128 191.3499931 45.80911255 191.36201477 C51.33782093 191.39076552 56.86628216 191.43064987 62.39485359 191.47855186 C71.13962853 191.55286192 79.88429161 191.58227114 88.6293335 191.60385132 C91.62257139 191.61174516 94.61580869 191.61985343 97.60904598 191.6279726 C98.35712207 191.62998013 99.10519817 191.63198766 99.87594323 191.63405603 C108.39158936 191.65732967 116.90720102 191.68793955 125.42280579 191.72315979 C126.20119944 191.72636584 126.97959308 191.72957189 127.78157442 191.73287509 C140.38392451 191.78614874 152.98569955 191.88075283 165.58769763 191.98713358 C178.53448107 192.09506847 191.48065949 192.14535655 204.4278931 192.14586812 C212.40923826 192.14825616 220.38754807 192.19714168 228.3681578 192.30642668 C234.49227431 192.38577565 240.61411821 192.38630395 246.73863029 192.35803223 C249.24491306 192.35892507 251.75134121 192.38544232 254.2570343 192.43981361 C266.60445111 193.18394603 266.60445111 193.18394603 277.86027598 189.15414262 C281.32168642 185.68282941 283.71580859 181.78606906 285.87949932 177.41253912 C287.11919924 174.97452578 288.67276608 172.81019386 290.28291321 170.60475159 C291.26567387 169.1557826 292.24617024 167.70527509 293.22431946 166.25318909 C297.33894722 160.19446874 301.49033542 154.16666723 305.72431946 148.19068909 C306.20586487 147.51086975 306.68741028 146.83105042 307.18354797 146.13063049 C308.18297 144.71981732 309.18240053 143.30901016 310.18183899 141.89820862 C313.18605132 137.64917208 316.1747457 133.38928399 319.16181946 129.12818909 C319.73279358 128.31551575 320.3037677 127.50284241 320.89204407 126.6655426 C321.44255432 125.87977844 321.99306458 125.09401428 322.56025696 124.28443909 C323.03898254 123.60188049 323.51770813 122.9193219 324.01094055 122.21607971 C326.64293581 118.38061783 329.20652926 114.49862438 331.78681946 110.62818909 C202.75681946 110.29818909 73.72681946 109.96818909 -59.21318054 109.62818909 C-59.21318054 35.24683315 -59.21318054 35.24683315 -47.21318054 20.62818909 C-46.43716492 19.64076721 -45.66114929 18.65334534 -44.86161804 17.63600159 C-42.33261886 14.62626386 -39.55072822 12.35043992 -36.33818054 10.06568909 C-35.35075867 9.34252502 -34.36333679 8.61936096 -33.34599304 7.87428284 C-23.01423613 1.65816142 -11.84083287 -0.11410183 0 0 Z " fill="#EA8D9A" transform="translate(60.21318054199219,-0.6281890869140625)"/>
<path d="M0 0 C5.60657752 3.07168874 10.78976788 6.55160981 16 10.25 C17.7809771 11.50559551 19.56223843 12.76078793 21.34375 14.015625 C22.26929688 14.66853516 23.19484375 15.32144531 24.1484375 15.99414062 C28.91837815 19.34943449 33.70985044 22.67365299 38.5 26 C47.36918415 32.16464967 56.22518966 38.34775936 65.0703125 44.546875 C68.47921251 46.93597192 71.89098661 49.32089311 75.3046875 51.703125 C83.92836082 57.72388983 92.53906965 63.75133125 101 70 C99.45662851 74.51864875 96.9773809 78.19237796 94.25 82.0625 C93.76829346 82.7544043 93.28658691 83.44630859 92.7902832 84.15917969 C91.19840397 86.44290537 89.59935233 88.72150309 88 91 C86.8837536 92.59740406 85.767874 94.19506449 84.65234375 95.79296875 C81.70579247 100.01052389 78.75291997 104.22361368 75.79833984 108.43554688 C72.86275018 112.62173121 69.93153597 116.81097641 67 121 C63.44256089 126.08284102 59.88449233 131.1652376 56.32421875 136.24609375 C55.72013184 137.10847656 55.11604492 137.97085938 54.49365234 138.859375 C53.30301573 140.55890497 52.11194507 142.25813096 50.92041016 143.95703125 C48.3489805 147.62694282 45.78591788 151.30131109 43.26171875 155.00390625 C42.64840698 155.9012146 42.64840698 155.9012146 42.02270508 156.81665039 C40.96715907 158.36482945 39.9169168 159.91662108 38.8671875 161.46875 C37 164 37 164 35.125 165.8125 C31.98126922 169.04869345 29.62957469 172.75849066 27.125 176.5 C25.96319297 178.2167914 24.80039987 179.93291584 23.63671875 181.6484375 C23.03778809 182.53241211 22.43885742 183.41638672 21.82177734 184.32714844 C18.89676258 188.61863351 15.92007766 192.87339887 12.9375 197.125 C12.35178223 197.9603125 11.76606445 198.795625 11.16259766 199.65625 C6.96781103 205.6325119 2.75860597 211.5985628 -1.45678711 217.56030273 C-4.75607344 222.22895969 -8.03861096 226.90905568 -11.31298828 231.59521484 C-13.67132351 234.96907681 -16.03508118 238.3391269 -18.3984375 241.70947266 C-19.83494488 243.76394099 -21.26250767 245.82425825 -22.6875 247.88671875 C-28.60630488 256.39500077 -35.07452557 264.29108927 -42 272 C-42.96099609 273.08861328 -42.96099609 273.08861328 -43.94140625 274.19921875 C-54.31678829 285.27093515 -67.6125441 294.05170074 -81 301 C-81.59006836 301.30679687 -82.18013672 301.61359375 -82.78808594 301.9296875 C-86.69970814 303.95128403 -90.64151991 305.90573135 -94.60107422 307.83154297 C-96.34429367 308.68062177 -98.08520581 309.53444276 -99.82470703 310.39111328 C-102.87901244 311.8943387 -105.93878648 313.38589916 -109 314.875 C-109.96736084 315.35171143 -110.93472168 315.82842285 -111.93139648 316.31958008 C-120.65891689 320.531015 -128.28562232 323.24516584 -138 321 C-146.74067346 317.89306445 -152.04469673 313.04178286 -156.375 304.9375 C-160.83760524 293.54865087 -157.51899421 278.35872881 -156.3125 266.4375 C-156.18103073 265.11613037 -156.18103073 265.11613037 -156.04690552 263.76806641 C-154.56418517 249.08664955 -152.68180893 234.62850465 -147.42211914 220.75195312 C-147.15492569 220.04526489 -146.88773224 219.33857666 -146.61244202 218.61047363 C-146.41033615 218.07901733 -146.20823029 217.54756104 -146 217 C-147.24682619 217.00276538 -147.24682619 217.00276538 -148.51884079 217.00558662 C-168.73231151 217.04973084 -188.94577393 217.08283961 -209.15928268 217.10362434 C-218.93433105 217.11394251 -228.70934727 217.12801318 -238.484375 217.15087891 C-247.00301931 217.17079623 -255.52164034 217.1837125 -264.04030728 217.18817699 C-268.55201426 217.19078718 -273.06365462 217.1969335 -277.57534027 217.21146011 C-281.82043018 217.22501783 -286.06542593 217.22922631 -290.31053543 217.22621536 C-291.86981594 217.22676634 -293.42909955 217.23075457 -294.98836136 217.23841095 C-297.11530228 217.24834397 -299.24188648 217.24597504 -301.36883545 217.24050903 C-302.55979198 217.24235262 -303.75074852 217.24419621 -304.97779465 217.24609566 C-307.94292965 217.00464719 -309.56683907 216.66776773 -312 215 C-314.32749345 211.50875983 -314.50299316 210.10777749 -314 206 C-312.40578651 203.83150768 -312.40578651 203.83150768 -310 202 C-306.8807888 201.55529499 -306.8807888 201.55529499 -303.13241577 201.63337708 C-302.44184983 201.64195399 -301.75128389 201.65053091 -301.0397917 201.65936774 C-298.72549652 201.69259025 -296.41283 201.75438197 -294.09912109 201.81567383 C-292.43993389 201.84463384 -290.78071042 201.87157685 -289.12145996 201.89665222 C-285.54718558 201.95337297 -281.97335209 202.02122198 -278.39942551 202.09668922 C-272.74260514 202.21285018 -267.08577532 202.28454998 -261.4281311 202.34635925 C-259.49015577 202.36805304 -257.55218085 202.38978281 -255.61420631 202.41154766 C-254.15834488 202.42785687 -254.15834488 202.42785687 -252.6730721 202.44449556 C-239.50301462 202.59555424 -226.33449083 202.78321228 -213.16650391 203.06274414 C-204.28242949 203.25098272 -195.39970934 203.37825897 -186.51380599 203.43682307 C-181.813003 203.47036712 -177.11728229 203.53514986 -172.41834641 203.67514992 C-154.29267076 205.17345978 -154.29267076 205.17345978 -137.48105431 200.3375988 C-133.78447771 196.40606988 -131.9837345 192.13590484 -130.60218239 186.97665405 C-129.76919304 184.24237985 -128.30877215 182.2052631 -126.56640625 179.96484375 C-126.06173828 179.27970703 -125.55707031 178.59457031 -125.03710938 177.88867188 C-124.55048828 177.24478516 -124.06386719 176.60089844 -123.5625 175.9375 C-119.34059917 170.27259969 -115.27036488 164.52127343 -111.27709961 158.69360352 C-110.76854179 157.95259651 -110.25998398 157.21158951 -109.73601532 156.44812775 C-108.49006751 154.63250188 -107.24474639 152.81644964 -106 151 C-107.57151133 150.99918285 -107.57151133 150.99918285 -109.17477036 150.99834919 C-134.64581781 150.98396528 -160.11669415 150.9409965 -185.58764267 150.86790943 C-197.90512835 150.83322974 -210.22250178 150.8079 -222.54003906 150.80444336 C-233.27375942 150.80140761 -244.00728001 150.78096961 -254.74092317 150.73947543 C-260.42640052 150.71810843 -266.1115936 150.70556387 -271.79711151 150.71384621 C-277.14552694 150.72136284 -282.49336524 150.70566077 -287.8416748 150.67193985 C-289.80729725 150.66367774 -291.77297678 150.66399037 -293.73859406 150.67340279 C-296.41786686 150.6849651 -299.09522934 150.66599903 -301.77435303 150.63923645 C-302.94750616 150.65524634 -302.94750616 150.65524634 -304.14435935 150.67157966 C-307.96232144 150.60017713 -309.66161678 150.31136842 -312.51410294 147.68661022 C-314 145 -314 145 -314 141.375 C-313 138 -313 138 -311.47265625 136.30683327 C-307.86845309 134.4019617 -304.41140552 134.63565794 -300.4375 134.71566772 C-299.56458533 134.72101552 -298.69167067 134.72636331 -297.79230404 134.73187315 C-294.86123389 134.75306225 -291.93084143 134.79548774 -289 134.83740234 C-286.90069364 134.8562135 -284.80137279 134.87346375 -282.70204163 134.88926697 C-278.17684596 134.92501872 -273.65181468 134.96860767 -269.1267395 135.01722336 C-261.96533176 135.09082029 -254.804052 135.12682602 -247.64233398 135.15371704 C-246.43351909 135.15841896 -245.22470419 135.16312089 -243.97925854 135.16796529 C-241.50708295 135.17751096 -239.03490703 135.18697041 -236.56273079 135.19634557 C-219.88895138 135.26115478 -203.21628021 135.35082642 -186.54345703 135.54492188 C-175.298255 135.67554793 -164.05445007 135.74566 -152.80846596 135.74652636 C-146.85863294 135.74941868 -140.91255586 135.78310797 -134.96362305 135.8909111 C-129.36104275 135.99198873 -123.76373259 136.01312057 -118.160429 135.97435188 C-116.11085269 135.97420053 -114.06102735 136.00292226 -112.01234627 136.06349373 C-101.35656675 136.60964462 -101.35656675 136.60964462 -92.00787544 132.3270421 C-88.38015889 128.27453722 -85.65799859 123.79573275 -83.10282516 119.01290631 C-81.63283662 116.32984347 -79.88974971 113.88626157 -78.08203125 111.421875 C-76.99184197 109.8648252 -75.90198148 108.30754513 -74.8125 106.75 C-74.00522461 105.59757812 -74.00522461 105.59757812 -73.18164062 104.421875 C-69.86712202 99.68573561 -66.56928919 94.93826689 -63.2800293 90.18457031 C-62.86665062 89.58730133 -62.45327194 88.99003235 -62.02736664 88.37466431 C-61.01816489 86.91649792 -60.00907125 85.4582567 -59 84 C-60.92573617 84.00691345 -60.92573617 84.00691345 -62.89037609 84.01396656 C-93.35696628 84.12222573 -123.82350461 84.20468741 -154.29024092 84.25532665 C-158.03911603 84.26158028 -161.78799073 84.26805188 -165.53686523 84.2746582 C-166.65637845 84.27662553 -166.65637845 84.27662553 -167.79850809 84.2786326 C-179.88759779 84.30039681 -191.97656877 84.33982388 -204.06558802 84.38576398 C-216.46749085 84.43250048 -228.86933145 84.46028943 -241.27131873 84.47044247 C-248.92578473 84.47730751 -256.57991516 84.49899961 -264.23427788 84.53958233 C-270.10091758 84.56910469 -275.96738449 84.57228123 -281.83410072 84.56553841 C-284.24279474 84.56691703 -286.65150114 84.5769034 -289.06011963 84.59602737 C-292.34313868 84.62082123 -295.62470966 84.61495396 -298.90776062 84.60127258 C-299.86593349 84.61583679 -300.82410635 84.630401 -301.81131476 84.64540654 C-306.36862325 84.59389781 -308.36495155 84.48130557 -312.09560871 81.65382671 C-314 79 -314 79 -314.5625 75.9375 C-313.83734544 72.15058176 -313.16076984 71.22969416 -310 69 C-306.55097481 68.41705689 -303.13594058 68.51918882 -299.64646912 68.58195496 C-298.58092192 68.58503719 -297.51537473 68.58811943 -296.41753823 68.59129506 C-292.83454503 68.60616072 -289.25243903 68.64942222 -285.66967773 68.69213867 C-283.10569859 68.70795562 -280.54170666 68.72180402 -277.97770691 68.73382568 C-272.44899853 68.76257643 -266.9205373 68.80246078 -261.39196587 68.85036278 C-252.64719092 68.92467283 -243.90252784 68.95408206 -235.15748596 68.97566223 C-232.16424807 68.98355607 -229.17101077 68.99166434 -226.17777348 68.99978352 C-225.42969738 69.00179105 -224.68162129 69.00379858 -223.91087623 69.00586694 C-215.3952301 69.02914058 -206.87961844 69.05975046 -198.36401367 69.0949707 C-197.58562002 69.09817675 -196.80722637 69.1013828 -196.00524504 69.104686 C-183.40289495 69.15795965 -170.80111991 69.25256374 -158.19912183 69.3589445 C-145.25233839 69.46687938 -132.30615997 69.51716746 -119.35892636 69.51767904 C-111.3775812 69.52006707 -103.39927139 69.5689526 -95.41866166 69.67823759 C-89.29454515 69.75758656 -83.17270124 69.75811487 -77.04818916 69.72984314 C-74.54190639 69.73073598 -72.03547825 69.75725324 -69.52978516 69.81162453 C-57.18236835 70.55575695 -57.18236835 70.55575695 -45.92654347 66.52595353 C-42.46513207 63.05463936 -40.07101041 59.15787778 -37.90731823 54.78434718 C-36.66761904 52.34633405 -35.1140512 50.18200583 -33.50390625 47.9765625 C-32.52114943 46.5275909 -31.54065157 45.07708442 -30.5625 43.625 C-24.97993357 35.40517809 -19.28698009 27.27051861 -13.53662109 19.16748047 C-10.76791292 15.26207991 -8.00971899 11.34925506 -5.25 7.4375 C-4.23441775 5.99866774 -3.2187969 4.55986272 -2.203125 3.12109375 C-1.47609375 2.09113281 -0.7490625 1.06117187 0 0 Z " fill="#80BAE5" transform="translate(384,122)"/>
<path d="M0 0 C0.33 0 0.66 0 1 0 C1.09359795 23.24452654 1.16405487 46.48902184 1.20724869 69.73369884 C1.22784077 80.52752687 1.25589709 91.32123755 1.30175781 102.11499023 C1.34172843 111.52696687 1.36745717 120.93885848 1.37635398 130.35091764 C1.38155144 135.33079994 1.39369704 140.31043907 1.42292023 145.29024315 C1.45025112 149.98603197 1.45840958 154.68147951 1.45243073 159.37734032 C1.45352311 161.09249736 1.46137106 162.80766688 1.4768219 164.52275467 C1.6254653 181.88747306 -2.03076369 197.23286796 -14.375 210.1875 C-25.40285447 221.18007098 -39.60725262 226.20799067 -54.91381836 226.48095703 C-55.99129333 226.50694977 -57.06876831 226.5329425 -58.17889404 226.5597229 C-69.42688738 226.81293738 -80.67777801 226.92658346 -91.92797852 227.02978516 C-97.25316519 227.08017567 -102.57482145 227.18059507 -107.89868164 227.31689453 C-114.3522516 227.48164412 -120.80240855 227.56627438 -127.257967 227.59591293 C-129.70412814 227.62026289 -132.15018964 227.67199398 -134.59513664 227.75281143 C-155.65625041 228.4140208 -155.65625041 228.4140208 -164.15243626 220.57340813 C-167.35142186 217.21964661 -170.20441012 213.69220484 -173 210 C-174.20637764 208.50456144 -175.41714457 207.01265233 -176.63243103 205.52444458 C-179.92860797 201.46938919 -182.99092608 197.2709757 -186 193 C-186.46180664 192.35047363 -186.92361328 191.70094727 -187.39941406 191.03173828 C-215.60452766 150.87341515 -232.42625195 100.86874024 -242 53 C-221.87 53 -201.74 53 -181 53 C-181.99 56.63 -182.98 60.26 -184 64 C-186.99544446 75.8286475 -188.88542446 87.53176283 -190.01074219 99.67871094 C-190.25129302 102.26389603 -190.51113359 104.84662785 -190.7734375 107.4296875 C-193.26774728 128.75132719 -193.26774728 128.75132719 -185.875 148.25 C-180.23909159 153.64086891 -173.47209677 156.78730565 -165.62573242 157.09228516 C-156.46583722 156.77034742 -147.90594302 151.77948301 -139.875 147.8125 C-138.67268265 147.22387887 -137.470125 146.63574833 -136.26733398 146.0480957 C-133.90786638 144.89250029 -131.54998345 143.7336626 -129.19384766 142.57128906 C-126.50467527 141.24828696 -123.80863663 139.94248878 -121.10546875 138.6484375 C-94.63436159 125.88448143 -74.11816334 106.3904615 -57.62695312 82.36376953 C-54.77767181 78.22410242 -51.88526329 74.11462602 -49 70 C-47.81242117 68.30213847 -46.62492058 66.60422221 -45.4375 64.90625 C-42.30349585 60.42910122 -39.15487065 55.96246071 -36 51.5 C-29.91675658 42.89406534 -23.87415783 34.25992572 -17.83496094 25.62304688 C-15.91467037 22.87802268 -13.99270026 20.13418086 -12.0703125 17.390625 C-11.43077637 16.47772705 -10.79124023 15.5648291 -10.13232422 14.62426758 C-8.90241351 12.86873356 -7.6722799 11.11335568 -6.44189453 9.3581543 C-5.61214111 8.17346558 -5.61214111 8.17346558 -4.765625 6.96484375 C-4.03520996 5.92251587 -4.03520996 5.92251587 -3.29003906 4.85913086 C-2.17490834 3.25206794 -1.08502644 1.62753967 0 0 Z " fill="#EDEDEC" transform="translate(419,286)"/>
<path d="M0 0 C2.28783896 0.0093449 4.57568804 0.01645307 6.86354065 0.0214386 C12.83623701 0.04037623 18.80830914 0.08936119 24.78076172 0.1449585 C30.89477092 0.19643867 37.00888263 0.21901368 43.12304688 0.24414062 C55.08364937 0.29749437 67.04362784 0.38532015 79.00390625 0.48828125 C79.00390625 11.70828125 79.00390625 22.92828125 79.00390625 34.48828125 C75.37390625 35.14828125 71.74390625 35.80828125 68.00390625 36.48828125 C63.61816008 39.33516912 61.50678531 41.53284218 60.00390625 46.48828125 C59.70145908 49.30592976 59.67910459 52.09393937 59.69140625 54.92578125 C59.67529297 55.66376953 59.65917969 56.40175781 59.64257812 57.16210938 C59.63731991 63.07760361 61.00321268 67.16489516 64.94140625 71.73828125 C69.64775876 74.42762554 74.6756351 74.8424302 80.00390625 75.48828125 C80.17525633 78.52974517 80.34102483 81.57136074 80.50390625 84.61328125 C80.57544922 85.86818359 80.57544922 85.86818359 80.6484375 87.1484375 C81.04207901 94.62762627 81.00390625 101.9639097 81.00390625 109.48828125 C31.50390625 109.48828125 -17.99609375 109.48828125 -68.99609375 109.48828125 C-68.99609375 35.10692532 -68.99609375 35.10692532 -56.99609375 20.48828125 C-56.22007813 19.50085938 -55.4440625 18.5134375 -54.64453125 17.49609375 C-52.11553207 14.48635602 -49.33364143 12.21053208 -46.12109375 9.92578125 C-45.13367188 9.20261719 -44.14625 8.47945312 -43.12890625 7.734375 C-29.36917169 -0.37027721 -15.49143379 -0.18752059 0 0 Z " fill="#D67C88" transform="translate(69.99609375,-0.48828125)"/>
<path d="M0 0 C3.56614808 0.89153702 5.11943202 1.5516077 8.01953125 3.5546875 C8.78676514 4.08143066 9.55399902 4.60817383 10.34448242 5.15087891 C11.56615112 6.00431885 11.56615112 6.00431885 12.8125 6.875 C14.08347534 7.75357666 14.08347534 7.75357666 15.38012695 8.64990234 C21.1630005 12.66610395 26.86062108 16.78779591 32.51611328 20.98071289 C37.49288354 24.66043817 42.56622791 28.18148796 47.67749023 31.67114258 C55.62595726 37.09934073 63.49885563 42.63458816 71.37841797 48.16210938 C74.07516346 50.05269422 76.7736409 51.94078224 79.47265625 53.828125 C80.36694336 54.45356201 81.26123047 55.07899902 82.18261719 55.72338867 C83.88495247 56.91385392 85.5874179 58.1041331 87.29003906 59.29418945 C91.87844456 62.50426534 96.44898061 65.73711961 101 69 C89.16129067 85.94183161 72.20707543 98.55024273 54 108 C53.40993164 108.30679688 52.81986328 108.61359375 52.21191406 108.9296875 C48.30029186 110.95128403 44.35848009 112.90573135 40.39892578 114.83154297 C38.65570633 115.68062177 36.91479419 116.53444276 35.17529297 117.39111328 C32.12098756 118.8943387 29.06121352 120.38589916 26 121.875 C25.03263916 122.35171143 24.06527832 122.82842285 23.06860352 123.31958008 C14.34108311 127.531015 6.71437768 130.24516584 -3 128 C-11.74067346 124.89306445 -17.04469673 120.04178286 -21.375 111.9375 C-25.83760524 100.54865087 -22.51899421 85.35872881 -21.3125 73.4375 C-21.22485382 72.55658691 -21.13720764 71.67567383 -21.04690552 70.76806641 C-19.56418517 56.08664955 -17.68180893 41.62850465 -12.42211914 27.75195312 C-12.15492569 27.04526489 -11.88773224 26.33857666 -11.61244202 25.61047363 C-11.41033615 25.07901733 -11.20823029 24.54756104 -11 24 C-11.83121746 24.00184359 -12.66243492 24.00368717 -13.51884079 24.00558662 C-33.73231151 24.04973084 -53.94577393 24.08283961 -74.15928268 24.10362434 C-83.93433105 24.11394251 -93.70934727 24.12801318 -103.484375 24.15087891 C-112.00301931 24.17079623 -120.52164034 24.1837125 -129.04030728 24.18817699 C-133.55201426 24.19078718 -138.06365462 24.1969335 -142.57534027 24.21146011 C-146.82043018 24.22501783 -151.06542593 24.22922631 -155.31053543 24.22621536 C-156.86981594 24.22676634 -158.42909955 24.23075457 -159.98836136 24.23841095 C-162.11530228 24.24834397 -164.24188648 24.24597504 -166.36883545 24.24050903 C-168.15527025 24.24327441 -168.15527025 24.24327441 -169.97779465 24.24609566 C-172.94292965 24.00464719 -174.56683907 23.66776773 -177 22 C-179.32749345 18.50875983 -179.50299316 17.10777749 -179 13 C-176.78183891 9.9847908 -175.58886769 9.09209478 -171.85285568 8.50780869 C-170.6029044 8.51149586 -169.35295311 8.51518303 -168.06512451 8.51898193 C-167.36750291 8.51556423 -166.66988131 8.51214653 -165.95111966 8.50862527 C-163.61380479 8.50203721 -161.27763871 8.52403605 -158.94042969 8.54589844 C-157.26498441 8.54702672 -155.58953715 8.54639342 -153.91409302 8.54412842 C-149.36471526 8.5429796 -144.81575838 8.56651599 -140.26647854 8.59442425 C-135.5125739 8.61940996 -130.75865988 8.62177767 -126.00469971 8.62652588 C-117.00200086 8.63896398 -107.99949604 8.67179689 -98.99688268 8.71192384 C-88.7479192 8.75661557 -78.49894652 8.77862205 -68.24990988 8.79870558 C-47.16649824 8.84052878 -26.08326134 8.91089707 -5 9 C-2.525 4.545 -2.525 4.545 0 0 Z " fill="#F7E37C" transform="translate(249,315)"/>
<path d="M0 0 C3.12239664 0.61555572 5.23787035 1.63774346 7.84375 3.44921875 C8.95762085 4.21697632 8.95762085 4.21697632 10.09399414 5.00024414 C10.88797607 5.55703857 11.68195801 6.11383301 12.5 6.6875 C13.3242749 7.26040771 14.1485498 7.83331543 14.99780273 8.42358398 C16.75384173 9.64505408 18.50827129 10.86884065 20.26123047 12.09472656 C23.03837403 14.02669557 25.83148308 15.93347631 28.62890625 17.8359375 C30.44034737 19.07777032 32.25155203 20.31994814 34.0625 21.5625 C34.92488281 22.14539795 35.78726563 22.7282959 36.67578125 23.32885742 C37.475 23.88162354 38.27421875 24.43438965 39.09765625 25.00390625 C39.80414307 25.48674072 40.51062988 25.9695752 41.23852539 26.46704102 C43.17613505 28.15328509 44.01858008 29.64706395 45 32 C43.94425781 33.49273437 43.94425781 33.49273437 42.8671875 35.015625 C37.16565439 43.08211529 31.47864003 51.15860374 25.8125 59.25 C24.92788086 60.51215332 24.92788086 60.51215332 24.02539062 61.79980469 C21.41673274 65.52625062 18.81624706 69.25714511 16.25390625 73.015625 C15.84615967 73.61213867 15.43841309 74.20865234 15.01831055 74.82324219 C13.96418933 76.3691966 12.91543742 77.91880849 11.8671875 79.46875 C10 82 10 82 8.125 83.8125 C4.98126922 87.04869345 2.62957469 90.75849066 0.125 94.5 C-1.03680703 96.2167914 -2.19960013 97.93291584 -3.36328125 99.6484375 C-3.96221191 100.53241211 -4.56114258 101.41638672 -5.17822266 102.32714844 C-8.10323742 106.61863351 -11.07992234 110.87339887 -14.0625 115.125 C-14.64821777 115.9603125 -15.23393555 116.795625 -15.83740234 117.65625 C-20.03218897 123.6325119 -24.24139403 129.5985628 -28.45678711 135.56030273 C-32.36451922 141.08994122 -36.24648288 146.63734358 -40.125 152.1875 C-54.37998504 172.57801199 -54.37998504 172.57801199 -60 180 C-63.7036505 178.6562925 -66.70348641 176.99119232 -69.921875 174.7265625 C-70.85765381 174.07171875 -71.79343262 173.416875 -72.75756836 172.7421875 C-74.23882202 171.69417969 -74.23882202 171.69417969 -75.75 170.625 C-76.76392822 169.9134375 -77.77785645 169.201875 -78.82250977 168.46875 C-81.88525119 166.31753016 -84.94304905 164.15943776 -88 162 C-89.76415139 160.75756891 -91.52846232 159.51536431 -93.29296875 158.2734375 C-97.19956753 155.52160446 -101.10134457 152.76307391 -105 150 C-101.17691332 143.72387477 -97.12769721 137.70971569 -92.75 131.8125 C-88.96340056 126.70966822 -85.27014897 121.5607031 -81.6875 116.3125 C-77.55875712 110.26458611 -73.39113507 104.24614824 -69.1875 98.25 C-68.59864014 97.40993408 -68.00978027 96.56986816 -67.40307617 95.7043457 C-66.20167417 93.99092421 -65.0000945 92.27762729 -63.79833984 90.56445312 C-60.86275016 86.37826875 -57.93156391 82.18900408 -55 78 C-53.83335519 76.33331803 -52.6666885 74.66665138 -51.5 73 C-50.9225 72.175 -50.345 71.35 -49.75 70.5 C-43.33333333 61.33333333 -36.91666667 52.16666667 -30.5 43 C-29.92185547 42.1740332 -29.34371094 41.34806641 -28.74804688 40.49707031 C-27.58806559 38.84004677 -26.42791096 37.18314457 -25.26757812 35.52636719 C-22.2471502 31.21316892 -19.23028209 26.89754012 -16.21875 22.578125 C-15.28482422 21.24007812 -15.28482422 21.24007812 -14.33203125 19.875 C-13.15121251 18.18308061 -11.971444 16.49042753 -10.79296875 14.796875 C-7.29433591 9.78689957 -3.69993322 4.86324555 0 0 Z " fill="#80BAE5" transform="translate(411,204)"/>
<path d="M0 0 C71.61 0 143.22 0 217 0 C215.46182019 3.07635961 213.94065699 5.68459672 212.015625 8.5 C211.41637207 9.37825439 210.81711914 10.25650879 210.19970703 11.16137695 C209.23460205 12.56649536 209.23460205 12.56649536 208.25 14 C207.2597583 15.44669067 207.2597583 15.44669067 206.24951172 16.92260742 C201.5732031 23.74143681 196.86187408 30.53562206 192.125 37.3125 C191.52461914 38.17166016 190.92423828 39.03082031 190.30566406 39.91601562 C189.75362305 40.70298828 189.20158203 41.48996094 188.6328125 42.30078125 C187.90408936 43.33972534 187.90408936 43.33972534 187.16064453 44.3996582 C186 46 186 46 185 47 C182.64712707 47.09763101 180.32365314 47.12997445 177.97032166 47.12025452 C176.85423022 47.12153615 176.85423022 47.12153615 175.71559149 47.12284368 C173.2035182 47.12450071 170.69151058 47.1189735 168.17944336 47.11352539 C166.38621523 47.11324354 164.59298698 47.11340121 162.79975891 47.1139679 C157.91566635 47.11425596 153.03159813 47.10835786 148.14751124 47.10139394 C143.0492342 47.09516181 137.95095666 47.09455671 132.85267639 47.09336853 C123.19122841 47.0902548 113.52979168 47.08204084 103.86834866 47.07201904 C92.87216377 47.06085921 81.87597837 47.05534778 70.87978923 47.05032361 C48.25318657 47.03985826 25.62659392 47.02225801 3 47 C2.56935805 41.43181483 2.142223 35.86337556 1.71826172 30.29467773 C1.5737057 28.40235218 1.42821047 26.51009812 1.28173828 24.61791992 C1.07073866 21.88999631 0.86317608 19.16182902 0.65625 16.43359375 C0.59062866 15.59477158 0.52500732 14.7559494 0.45739746 13.89170837 C0.39733521 13.09140701 0.33727295 12.29110565 0.27539062 11.46655273 C0.22209595 10.77150131 0.16880127 10.07644989 0.1138916 9.3603363 C-0.03649708 6.24361944 0 3.12034305 0 0 Z " fill="#EDEDEC" transform="translate(152,143)"/>
<path d="M0 0 C55.44 0 110.88 0 168 0 C166.57204958 2.85590085 165.23638638 5.24827181 163.453125 7.84375 C162.94467041 8.58584717 162.43621582 9.32794434 161.91235352 10.0925293 C161.36377686 10.88699463 160.8152002 11.68145996 160.25 12.5 C159.68015381 13.32862549 159.11030762 14.15725098 158.52319336 15.01098633 C154.22426069 21.25125915 149.90018933 27.47411626 145.5625 33.6875 C144.9962793 34.49960938 144.43005859 35.31171875 143.84667969 36.1484375 C143.02731934 37.31826172 143.02731934 37.31826172 142.19140625 38.51171875 C141.71904541 39.18678467 141.24668457 39.86185059 140.76000977 40.55737305 C140.17920654 41.36343994 139.59840332 42.16950684 139 43 C138.65437673 43.64568089 138.30875345 44.29136179 137.95265675 44.95660877 C135.89874173 48.37411683 134.34969406 50.62064284 130.40850544 51.72838879 C127.10401299 51.98666267 123.88267246 51.98929822 120.56884766 51.90820312 C118.69484787 51.90995544 118.69484787 51.90995544 116.7829895 51.91174316 C113.36869963 51.90713365 109.95831179 51.86711736 106.54471254 51.8111515 C102.97339741 51.76103173 99.40202637 51.75643327 95.83041382 51.74694824 C89.07274829 51.72211446 82.31612208 51.65651024 75.55891359 51.57615232 C67.86378393 51.48663332 60.16860378 51.44272253 52.47308278 51.40258884 C36.64812059 51.31903938 20.82419448 51.17838965 5 51 C4.28194304 45.02332165 3.57006888 39.04595033 2.86376953 33.06787109 C2.62293121 31.03674734 2.38044147 29.00581866 2.13623047 26.97509766 C1.78432754 24.04640347 1.4384834 21.1170457 1.09375 18.1875 C0.92969666 16.83857666 0.92969666 16.83857666 0.7623291 15.46240234 C0.66222534 14.60211426 0.56212158 13.74182617 0.45898438 12.85546875 C0.37015991 12.10934326 0.28133545 11.36321777 0.18981934 10.59448242 C-0.06790692 7.07183689 0 3.53206092 0 0 Z " fill="#EDEDEC" transform="translate(157,206)"/>
<path d="M0 0 C5.60657752 3.07168874 10.78976788 6.55160981 16 10.25 C17.7809771 11.50559551 19.56223843 12.76078793 21.34375 14.015625 C22.26929688 14.66853516 23.19484375 15.32144531 24.1484375 15.99414062 C28.91837815 19.34943449 33.70985044 22.67365299 38.5 26 C47.36918415 32.16464967 56.22518966 38.34775936 65.0703125 44.546875 C68.47921251 46.93597192 71.89098661 49.32089311 75.3046875 51.703125 C83.92836082 57.72388983 92.53906965 63.75133125 101 70 C99.45677084 74.51823204 96.97860909 78.19345358 94.25 82.0625 C93.26420312 83.46996819 92.27853249 84.8775248 91.29296875 86.28515625 C90.76493652 87.03684082 90.2369043 87.78852539 89.69287109 88.56298828 C87.86826595 91.1896408 86.08304252 93.84054764 84.30078125 96.49609375 C83.05487081 98.33085366 81.80877961 100.16549084 80.5625 102 C79.97178711 102.89082275 79.38107422 103.78164551 78.77246094 104.69946289 C78.20946289 105.52051514 77.64646484 106.34156738 77.06640625 107.1875 C76.57084229 107.92355469 76.07527832 108.65960938 75.56469727 109.41796875 C75.04834717 109.94003906 74.53199707 110.46210938 74 111 C69.77835694 111 69.16135931 110.75493369 65.9375 108.4296875 C65.15117187 107.87023437 64.36484375 107.31078125 63.5546875 106.734375 C62.71164062 106.12078125 61.86859375 105.5071875 61 104.875 C59.18767594 103.58048281 57.37517096 102.28621889 55.5625 100.9921875 C54.63695312 100.32670898 53.71140625 99.66123047 52.7578125 98.97558594 C48.5305516 95.94734627 44.26493831 92.97481137 40 90 C38.3331189 88.83363973 36.6664529 87.66697199 35 86.5 C34.175 85.9225 33.35 85.345 32.5 84.75 C30 83 27.5 81.25 25 79.5 C24.1747583 78.92233887 23.3495166 78.34467773 22.49926758 77.74951172 C20.83501172 76.58451636 19.17078639 75.4194774 17.5065918 74.25439453 C12.4531457 70.7166361 7.3986027 67.18045299 2.34301758 63.64575195 C-0.14786049 61.9027381 -2.6364634 60.15651075 -5.125 58.41015625 C-8.40549674 56.10972765 -11.69816734 53.82827974 -15 51.55859375 C-15.78995361 51.01154785 -16.57990723 50.46450195 -17.39379883 49.90087891 C-18.88675807 48.86701059 -20.38380666 47.83901456 -21.88549805 46.81787109 C-26.88711953 43.33864141 -26.88711953 43.33864141 -28 40 C-26.52435335 37.50087173 -25.00887007 35.21826227 -23.3125 32.875 C-22.81862793 32.17576416 -22.32475586 31.47652832 -21.81591797 30.75610352 C-20.76234172 29.26643343 -19.70424808 27.77994991 -18.64208984 26.29638672 C-17.00636541 24.00890173 -15.38571127 21.71148273 -13.76953125 19.41015625 C-9.20864068 12.9193624 -4.61490862 6.45248133 0 0 Z " fill="#49505A" transform="translate(384,122)"/>
<path d="M0 0 C1.39838569 -0.00514239 2.79676489 -0.01242609 4.19512939 -0.02168274 C7.9825585 -0.04016653 11.76928184 -0.02727727 15.55668139 -0.00759244 C19.5265702 0.00882396 23.49641536 -0.00002314 27.46632385 -0.00511169 C34.13342526 -0.00962986 40.80024586 0.0062185 47.46728516 0.03417969 C55.16546858 0.06621737 62.86314526 0.06622014 70.56136459 0.04896492 C77.97778808 0.03307636 85.39402653 0.03984916 92.81044197 0.05690193 C95.96142592 0.06375849 99.11226094 0.06275436 102.26324272 0.05535698 C105.97757838 0.04767062 109.69134059 0.0598959 113.40557861 0.08720589 C115.41160305 0.09732846 117.41769651 0.08793111 119.42372131 0.07788086 C126.25016984 0.15001556 130.80084015 0.43839017 136.30297852 4.63110352 C140.23500336 9.00447809 139.75109027 13.99180108 139.67797852 19.56860352 C139.68958008 20.44967773 139.70118164 21.33075195 139.71313477 22.23852539 C139.68999336 27.38748875 139.43760697 31.33858169 136.30297852 35.63110352 C129.81622046 40.64239056 123.45369885 40.21074046 115.49243164 40.18041992 C114.09389665 40.18912433 112.69537118 40.19949402 111.29685974 40.21139526 C107.51375875 40.23808589 103.73105844 40.23934313 99.9478817 40.23426867 C96.78433494 40.23212366 93.62086833 40.24190988 90.45733881 40.25147951 C82.99257522 40.27363771 75.52801295 40.27456209 68.06323242 40.26245117 C60.37228427 40.25036498 52.68206727 40.27501637 44.99124384 40.31759131 C38.37698799 40.35285485 31.76296458 40.36482142 25.14861822 40.35831583 C21.20292602 40.35469555 17.25775578 40.35990699 13.31214905 40.3877449 C9.6017426 40.41294642 5.89247454 40.40897514 2.18208504 40.38292313 C0.17840211 40.37595795 -1.82531596 40.39851504 -3.82887268 40.42205811 C-13.6751419 40.30721142 -13.6751419 40.30721142 -17.97155762 36.73129272 C-22.8195013 31.7470361 -23.03839323 26.83987981 -23.00952148 20.19360352 C-23.02563477 19.45561523 -23.04174805 18.71762695 -23.05834961 17.95727539 C-23.06392 11.69058229 -21.58414658 7.83073413 -17.43711853 2.9969635 C-12.4732068 -0.98766044 -6.04315642 -0.05416106 0 0 Z " fill="#FEFEFE" transform="translate(151.697021484375,34.368896484375)"/>
<path d="M0 0 C37.29 0 74.58 0 113 0 C109.77438973 5.80609848 106.77435444 10.93077645 102.8125 16.125 C98.98294433 21.25544274 95.25501686 26.43345762 91.6875 31.75 C91.30376221 32.31477051 90.92002441 32.87954102 90.5246582 33.46142578 C86.95534269 38.8265029 84.12496715 44.27089356 81 50 C57.24 50 33.48 50 9 50 C7.19627734 43.38635025 5.50885299 37.11251868 4.39453125 30.41015625 C4.26559982 29.65834579 4.1366684 28.90653534 4.00382996 28.13194275 C3.73668789 26.56716333 3.47215072 25.00193699 3.21020508 23.4362793 C2.80899964 21.04160743 2.39826555 18.64870609 1.98632812 16.25585938 C1.72600628 14.72405276 1.46622088 13.19215485 1.20703125 11.66015625 C1.08519974 10.94972672 0.96336823 10.23929718 0.83784485 9.50733948 C0.2992022 6.26440767 0 3.30201073 0 0 Z " fill="#EDEDEC" transform="translate(165,273)"/>
<path d="M0 0 C1.07330842 -0.0034177 2.14661684 -0.0068354 3.25244975 -0.01035666 C6.86101249 -0.01696287 10.46883694 0.00508671 14.07733154 0.0269165 C16.65916934 0.02804438 19.24100841 0.02741229 21.82284546 0.02514648 C27.38754212 0.02304849 32.95205126 0.03560449 38.51670074 0.05809784 C46.56222903 0.09059821 54.60766659 0.10102283 62.65325341 0.10604981 C75.70644805 0.11480556 88.75954274 0.14142869 101.81268311 0.17926025 C114.49301656 0.21597312 127.17332287 0.24428841 139.85369873 0.2612915 C141.02601165 0.26286784 141.02601165 0.26286784 142.22200766 0.26447603 C146.14275162 0.26969616 150.06349577 0.274751 153.98424006 0.27972364 C186.51371572 0.3211944 219.04306885 0.3916504 251.57244873 0.48101807 C250.47033968 2.23231464 249.36567441 3.9820027 248.25994873 5.73101807 C247.33762451 7.19281494 247.33762451 7.19281494 246.39666748 8.68414307 C245.4936792 10.06859619 245.4936792 10.06859619 244.57244873 11.48101807 C244.20467505 12.24899688 243.83690136 13.01697569 243.45798302 13.80822659 C240.14202426 16.75004929 235.97872688 16.03210023 231.71640015 15.99568176 C230.18038951 16.00610006 230.18038951 16.00610006 228.61334836 16.01672882 C225.16541468 16.03509585 221.71816153 16.02470725 218.27020264 16.01446533 C215.80499249 16.02151892 213.33978668 16.03026156 210.87458801 16.04057312 C204.86338255 16.06079447 198.85244664 16.06207835 192.8412347 16.05394758 C187.95574649 16.04765327 183.07031351 16.04877936 178.1848259 16.05521965 C177.49006031 16.05612131 176.79529472 16.05702296 176.07947563 16.05795194 C174.66814188 16.05980311 173.25680813 16.06166567 171.84547441 16.0635395 C158.60243021 16.08012904 145.35949246 16.07138951 132.11645465 16.05455392 C119.99842603 16.03986096 107.88064544 16.05447749 95.76264878 16.08332408 C83.32445607 16.11271266 70.88637786 16.12369164 58.44815195 16.11414188 C57.04133568 16.11311932 55.6345194 16.11212471 54.22770309 16.11115837 C53.53549994 16.11068198 52.84329679 16.11020559 52.13011778 16.10971477 C47.25122772 16.10754963 42.37244591 16.1173601 37.49357986 16.1319294 C30.92554944 16.15126887 24.35790634 16.14438184 17.78986931 16.11973 C15.37635849 16.11470783 12.96281275 16.11824803 10.54932976 16.13087845 C7.25983861 16.14673392 3.97188234 16.13192723 0.6824646 16.10920715 C-0.75756158 16.12696075 -0.75756158 16.12696075 -2.22667921 16.145073 C-6.785574 16.08089761 -8.79346995 15.96176268 -12.52427101 13.1331625 C-14.42755127 10.48101807 -14.42755127 10.48101807 -14.99005127 7.41851807 C-13.40664703 -0.85037075 -6.94815436 -0.08033075 0 0 Z " fill="#4B525B" transform="translate(84.42755126953125,190.51898193359375)"/>
<path d="M0 0 C0.8772979 -0.00256327 1.75459581 -0.00512655 2.6584785 -0.0077675 C5.60362059 -0.01271624 8.54825216 0.00380559 11.49334717 0.02018738 C13.60228463 0.02103341 15.71122297 0.02055897 17.82015991 0.01885986 C23.55122232 0.01799757 29.28209715 0.03566129 35.01311588 0.05658174 C41.00023007 0.07530951 46.98734835 0.0770959 52.9744873 0.08065796 C64.31458839 0.08998989 75.65460292 0.11461924 86.99466586 0.14470643 C99.90381161 0.1782147 112.81296144 0.19472746 125.72213984 0.20979273 C152.2797127 0.24116776 178.83720868 0.2939506 205.39471436 0.36076355 C203.79544983 3.65316153 201.94880788 6.55675245 199.83221436 9.54826355 C199.21217529 10.42869324 198.59213623 11.30912292 197.95330811 12.2162323 C196.39471436 14.36076355 196.39471436 14.36076355 195.39471436 15.36076355 C192.76109462 15.46966677 190.15330057 15.51300796 187.51878357 15.5146637 C186.26604298 15.52123708 186.26604298 15.52123708 184.98799449 15.52794325 C182.16742953 15.54138193 179.34689585 15.54752142 176.52630615 15.55363464 C174.51296851 15.56153159 172.4996323 15.56980028 170.48629761 15.57841492 C163.85552328 15.60468103 157.22474249 15.61994658 150.59393311 15.63420105 C148.31538196 15.63955874 146.03683086 15.64493624 143.7582798 15.6503334 C134.28345507 15.67196838 124.80863207 15.69070687 115.33378887 15.7019558 C101.73385963 15.71820577 88.13421564 15.75140208 74.53439397 15.80835664 C64.98364713 15.84699682 55.43297678 15.86658143 45.88215381 15.87187636 C40.17205097 15.8755378 34.46225205 15.88764305 28.75223351 15.9199791 C23.3817303 15.94995568 18.01171653 15.95640879 12.64114761 15.94459534 C10.66742572 15.94437373 8.6936818 15.95275024 6.72003746 15.97024918 C4.0299609 15.99280632 1.34167938 15.98470924 -1.34840393 15.96876526 C-2.5263703 15.98958839 -2.5263703 15.98958839 -3.72813398 16.01083219 C-7.5557006 15.95474352 -9.25917344 15.67872828 -12.12134075 13.04932594 C-13.60528564 10.36076355 -13.60528564 10.36076355 -13.60528564 6.73576355 C-12.60528564 3.36076355 -12.60528564 3.36076355 -11.080616 1.67237377 C-7.47092929 -0.24030103 -3.98584873 -0.04242381 0 0 Z " fill="#4A515A" transform="translate(83.60528564453125,256.6392364501953)"/>
<path d="M0 0 C1.77388086 1.09926403 3.54399684 2.20460502 5.3125 3.3125 C6.29863281 3.92738281 7.28476562 4.54226562 8.30078125 5.17578125 C10.50172035 6.66324661 12.23328988 8.0403386 14 10 C13.32839844 10.60714844 12.65679687 11.21429688 11.96484375 11.83984375 C7.88108167 15.93220624 4.80905424 20.80405078 1.5625 25.5625 C0.12921441 27.64344145 -1.30438492 29.72416684 -2.73828125 31.8046875 C-3.81263428 33.36848145 -3.81263428 33.36848145 -4.90869141 34.96386719 C-7.95659527 39.38877175 -11.03886249 43.78921574 -14.125 48.1875 C-15.27351331 49.82676981 -16.42195095 51.46609263 -17.5703125 53.10546875 C-18.13524414 53.91161621 -18.70017578 54.71776367 -19.28222656 55.54833984 C-22.1896209 59.69786428 -25.09468001 63.84902306 -28 68 C-29.16665575 69.66667431 -30.33332241 71.33334098 -31.5 73 C-32.0775 73.825 -32.655 74.65 -33.25 75.5 C-44.33333333 91.33333333 -55.41666667 107.16666667 -66.5 123 C-67.07830566 123.82653076 -67.65661133 124.65306152 -68.25244141 125.50463867 C-69.40952635 127.1568551 -70.56803591 128.80807482 -71.72802734 130.45825195 C-74.8042327 134.83852915 -77.8476726 139.23772248 -80.8515625 143.66796875 C-81.79902344 145.05338867 -81.79902344 145.05338867 -82.765625 146.46679688 C-83.9804954 148.24443813 -85.18663771 150.02808443 -86.3828125 151.81835938 C-86.929375 152.61435547 -87.4759375 153.41035156 -88.0390625 154.23046875 C-88.75376709 155.28850708 -88.75376709 155.28850708 -89.48291016 156.36791992 C-91.29120693 158.31327942 -92.37097625 158.76581475 -95 159 C-97.359375 157.56640625 -97.359375 157.56640625 -99.75 155.5625 C-100.54921875 154.90378906 -101.3484375 154.24507812 -102.171875 153.56640625 C-103.07679688 152.79103516 -103.07679688 152.79103516 -104 152 C-103.09802442 147.66016186 -100.83853823 144.56523954 -98.3125 141 C-97.82628174 140.30358398 -97.34006348 139.60716797 -96.83911133 138.88964844 C-95.78374231 137.37965125 -94.72560669 135.87158479 -93.66503906 134.36523438 C-91.98717338 131.98177943 -90.3168542 129.59320196 -88.6484375 127.203125 C-85.70351694 122.98663895 -82.75188031 118.77490422 -79.79833984 114.56445312 C-76.86275016 110.37826875 -73.93156391 106.18900408 -71 102 C-69.83335519 100.33331803 -68.6666885 98.66665138 -67.5 97 C-66.9225 96.175 -66.345 95.35 -65.75 94.5 C-32.5 47 -32.5 47 -30.74853516 44.49804688 C-29.58657638 42.83801305 -28.42479138 41.17785757 -27.26318359 39.51757812 C-24.27592876 35.24839439 -21.28531647 30.98162364 -18.2890625 26.71875 C-12.08271493 17.88253852 -5.91379671 9.03598752 0 0 Z " fill="#76ACD4" transform="translate(399,194)"/>
<path d="M0 0 C0.6976216 -0.0034177 1.3952432 -0.0068354 2.11400485 -0.01035666 C4.45131972 -0.01694472 6.7874858 0.00505412 9.12469482 0.0269165 C10.8001401 0.02804479 12.47558736 0.02741149 14.15103149 0.02514648 C18.70040925 0.02399766 23.24936613 0.04753405 27.79864597 0.07544231 C32.55255061 0.10042803 37.30646464 0.10279573 42.0604248 0.10754395 C51.06312365 0.11998205 60.06562847 0.15281496 69.06824183 0.1929419 C79.31720531 0.23763364 89.56617799 0.25964012 99.81521463 0.27972364 C120.89862627 0.32154685 141.98186317 0.39191514 163.06512451 0.48101807 C162.4383428 4.14274281 161.42060605 7.36291757 160.00262451 10.79351807 C159.64039795 11.67652588 159.27817139 12.55953369 158.90496826 13.46929932 C158.62781982 14.1331665 158.35067139 14.79703369 158.06512451 15.48101807 C136.88165732 15.5277121 115.69819859 15.56299417 94.5146904 15.58464241 C84.67910798 15.59496065 74.84355752 15.60903145 65.00799561 15.63189697 C56.43661358 15.65181408 47.8652547 15.66473052 39.29385018 15.66919506 C34.75419771 15.67180528 30.21461144 15.67795183 25.67498016 15.69247818 C21.40362558 15.70603556 17.13236458 15.71024445 12.86099052 15.70723343 C11.2920347 15.70778442 9.7230758 15.71177285 8.15413857 15.71942902 C6.01406116 15.7293615 3.87433833 15.72699329 1.73425293 15.7215271 C0.53592205 15.72337069 -0.66240883 15.72521427 -1.89705276 15.72711372 C-4.87037428 15.48624334 -6.49659272 15.15461795 -8.93487549 13.48101807 C-11.26236894 9.9897779 -11.43786865 8.58879556 -10.93487549 4.48101807 C-7.75763934 0.16211097 -5.20484132 -0.01535351 0 0 Z " fill="#4D545D" transform="translate(80.93487548828125,323.51898193359375)"/>
<path d="M0 0 C3.41633337 1.26065201 6.26056874 2.69923292 9.23046875 4.80078125 C10.42023315 5.63778564 10.42023315 5.63778564 11.6340332 6.49169922 C12.47667725 7.09256348 13.31932129 7.69342773 14.1875 8.3125 C15.0746167 8.93914551 15.9617334 9.56579102 16.87573242 10.21142578 C23.27133124 14.73943456 29.62426146 19.32597758 35.95947266 23.93798828 C43.42993795 29.35741433 51.02910721 34.5906675 58.6496582 39.79638672 C60.06251099 40.76922607 60.06251099 40.76922607 61.50390625 41.76171875 C62.34767822 42.33881592 63.1914502 42.91591309 64.06079102 43.51049805 C66 45 66 45 67 47 C63.14117307 48.79782337 59.2816942 50.59423769 55.42163086 52.3894043 C54.1112337 52.99905259 52.80100888 53.60907149 51.4909668 54.21948242 C49.59730575 55.10174812 47.7030087 55.98263573 45.80859375 56.86328125 C44.67220459 57.39219971 43.53581543 57.92111816 42.36499023 58.46606445 C33.14467519 62.66915808 25.35448836 65.76865001 15.25 62.4375 C6.5007155 58.77326974 1.93927779 53.54595388 -2 45 C-6.20260925 32.39217225 -2.73330828 12.80549925 0 0 Z " fill="#444951" transform="translate(229,380)"/>
<path d="M0 0 C2.98965642 0.59850402 4.99778498 1.48912049 7.453125 3.28515625 C8.071875 3.73310547 8.690625 4.18105469 9.328125 4.64257812 C9.96234375 5.11115234 10.5965625 5.57972656 11.25 6.0625 C12.22453125 6.77116211 12.22453125 6.77116211 13.21875 7.49414062 C14.81653662 8.65723529 16.40881803 9.82788601 18 11 C16.18212472 22.25535544 16.18212472 22.25535544 15 27.6875 C12.24289263 41.44841982 11.72412957 55.07567238 11.875 69.0625 C11.88507034 70.71939551 11.89418888 72.37629708 11.90234375 74.03320312 C11.92398939 78.02229036 11.95828491 82.01107426 12 86 C7.90203827 83.70299944 3.95083451 81.3752367 0.1171875 78.65234375 C-0.74003906 78.04712891 -1.59726563 77.44191406 -2.48046875 76.81835938 C-3.35316406 76.19767578 -4.22585937 75.57699219 -5.125 74.9375 C-6.87649111 73.69504401 -8.62906169 72.45410808 -10.3828125 71.21484375 C-11.14996582 70.66948975 -11.91711914 70.12413574 -12.70751953 69.56225586 C-15.08566729 67.94162034 -17.51907409 66.45738648 -20 65 C-19.47608877 41.99553432 -10.61338501 20.06542698 0 0 Z " fill="#ECD260" transform="translate(249,315)"/>
<path d="M0 0 C0.75318512 -0.00686325 1.50637024 -0.0137265 2.28237915 -0.02079773 C4.77454433 -0.03911269 7.26608267 -0.03522111 9.75830078 -0.02954102 C11.4908163 -0.03410122 13.22333 -0.03940631 14.95584106 -0.04542542 C18.58912497 -0.0543662 22.22218921 -0.05192321 25.85546875 -0.04199219 C30.50845962 -0.0305126 35.16069046 -0.05069318 39.81358147 -0.07990932 C43.3927186 -0.09827082 46.97167369 -0.0979788 50.5508461 -0.0922718 C52.26603383 -0.09211852 53.98123385 -0.09816867 55.6963768 -0.11056328 C58.09754564 -0.12546762 60.49731207 -0.11480098 62.8984375 -0.09765625 C63.60510559 -0.10732422 64.31177368 -0.11699219 65.03985596 -0.12695312 C68.56738148 -0.07429987 70.50568352 0.35823183 73.51956177 2.2518158 C75.57861328 4.40405273 75.57861328 4.40405273 76.20361328 7.34155273 C75.36089941 11.47085072 73.84851737 12.78540103 70.57861328 15.40405273 C67.85004838 15.90032676 65.74297541 16.09069792 63.02197266 16.05102539 C62.27824905 16.05978699 61.53452545 16.06854858 60.76826477 16.07757568 C58.31903085 16.09951529 55.87161433 16.08503814 53.42236328 16.06811523 C51.71512507 16.07148498 50.0078892 16.07633892 48.30065918 16.08261108 C44.72624829 16.08997498 41.15246304 16.07929302 37.578125 16.0559082 C33.00119988 16.02742006 28.42574068 16.04382672 23.84886932 16.07377052 C20.32457476 16.09185695 16.80062653 16.08607945 13.27632141 16.07313156 C11.5890536 16.06980123 9.90175413 16.07387154 8.21452332 16.08552933 C5.85392237 16.09826111 3.49567959 16.0788329 1.13525391 16.05102539 C0.09399101 16.06620712 0.09399101 16.06620712 -0.9683075 16.08169556 C-4.75502498 15.99924566 -6.36904525 15.44479961 -9.39367676 13.09017944 C-11.42138672 10.40405273 -11.42138672 10.40405273 -11.42138672 6.77905273 C-9.47010509 0.19347723 -6.41848733 -0.04065442 0 0 Z " fill="#4A515A" transform="translate(81.42138671875,389.595947265625)"/>
<path d="M0 0 C0.33 12.87 0.66 25.74 1 39 C-12.33333333 39 -12.33333333 39 -16.6953125 34.80078125 C-20.20673364 29.95417902 -20.33756175 25.3317149 -20.3125 19.5625 C-20.32861328 18.82451172 -20.34472656 18.08652344 -20.36132812 17.32617188 C-20.36695703 10.99365353 -18.71363394 6.97067903 -14.5 2.125 C-11 0 -11 0 0 0 Z " fill="#EEEDEC" transform="translate(149,35)"/>
<path d="M0 0 C1 2 1 2 -0.1171875 5.5859375 C-0.69723205 7.18444233 -1.28373354 8.78061192 -1.875 10.375 C-4.98036045 18.9900772 -7.88786538 27.65580392 -10.6875 36.375 C-11.05536621 37.51372559 -11.42323242 38.65245117 -11.80224609 39.82568359 C-14.05032754 46.8420051 -14.05032754 46.8420051 -16.05322266 53.93066406 C-16.39272949 55.20393555 -16.73223633 56.47720703 -17.08203125 57.7890625 C-17.37956299 58.9538916 -17.67709473 60.1187207 -17.98364258 61.31884766 C-18.31904053 62.20362793 -18.65443848 63.0884082 -19 64 C-22 65 -22 65 -23.7175293 64.19555664 C-24.33023682 63.77137451 -24.94294434 63.34719238 -25.57421875 62.91015625 C-26.24130859 62.45576172 -26.90839844 62.00136719 -27.59570312 61.53320312 C-28.28599609 61.04787109 -28.97628906 60.56253906 -29.6875 60.0625 C-30.38939453 59.58103516 -31.09128906 59.09957031 -31.81445312 58.60351562 C-33.54931858 57.41153324 -35.27550373 56.20693527 -37 55 C-34.21572897 49.05087412 -30.98618596 43.94110899 -27.0625 38.6875 C-22.29686404 32.20264147 -17.65020636 25.65502611 -13.125 19 C-12.58343262 18.20384277 -12.04186523 17.40768555 -11.48388672 16.58740234 C-10.45506367 15.07450201 -9.4264088 13.56148729 -8.39794922 12.04833984 C-5.63816745 8.00457997 -2.82610245 3.99765038 0 0 Z " fill="#77ACD3" transform="translate(287,260)"/>
<path d="M0 0 C0.66 0.33 1.32 0.66 2 1 C-2.29 5.29 -6.58 9.58 -11 14 C-11 9.40845608 -8.09282279 7.18698368 -5 4 C-3.3719908 2.61973133 -1.71956118 1.26438322 0 0 Z " fill="#DE93A1" transform="translate(23,10)"/>
</svg>
