<?xml version="1.0" encoding="UTF-8"?>
<svg version="1.1" xmlns="http://www.w3.org/2000/svg" width="512" height="512">
<path d="M0 0 C3.7671301 3.30777309 7.26436544 6.8367013 10.75 10.4375 C11.64332031 11.34048828 12.53664063 12.24347656 13.45703125 13.17382812 C17.91712971 17.70946581 22.21528962 22.33224787 26.36425781 27.15258789 C29.10144051 30.2439702 32.05075403 33.11280045 35 36 C42.31571173 43.23189677 42.31571173 43.23189677 45.4375 46.9375 C48.89038596 51.02621151 52.70077198 54.73734698 56.5 58.5 C60.8653112 62.82328655 65.10613961 67.14676831 69.06640625 71.84765625 C72.50888068 75.67958233 76.22666402 79.24501916 79.88696289 82.86743164 C83.43702635 86.39478378 86.8008981 89.98881816 90.03125 93.8125 C92.89838692 96.99820768 95.95432076 99.98584545 99 103 C106.35711491 110.28104289 106.35711491 110.28104289 109.4375 113.9375 C112.8904923 118.02633743 116.70158842 121.73635649 120.5 125.5 C131.7875203 136.72729829 141.30154593 147.41426794 146 163 C146.17694995 163.56437838 146.3538999 164.12875675 146.53621197 164.7102375 C147.17132876 167.84586523 147.13641847 170.84672968 147.14717102 174.0463562 C147.15084771 174.75607862 147.1545244 175.46580103 147.1583125 176.19703019 C147.16932571 178.57520847 147.17318911 180.95334303 147.17700195 183.33154297 C147.18326824 185.03666319 147.18991519 186.74178205 147.19691467 188.44689941 C147.21793247 194.04531914 147.22831283 199.64373908 147.23828125 205.2421875 C147.24232923 207.16997415 147.24644616 209.09776067 147.25063133 211.02554703 C147.26967557 220.08002931 147.28390994 229.13450346 147.2922433 238.18900192 C147.30202249 248.64163093 147.32836299 259.09404857 147.36874419 269.54660308 C147.3988889 277.62654262 147.41371049 285.70642149 147.41702431 293.78641617 C147.41937608 298.61230294 147.42835343 303.43796367 147.45348549 308.26379013 C147.47674338 312.80286256 147.4810087 317.34155973 147.47072411 321.88067627 C147.47022813 323.54555636 147.47656685 325.21045479 147.49028015 326.87527847 C147.5079717 329.15052778 147.50090783 331.4244262 147.48774719 333.69967651 C147.49013555 334.97208632 147.4925239 336.24449612 147.49498463 337.55546379 C146.51858595 344.35010026 142.17664447 348.06124877 137 352 C133.88369429 353.55815286 130.57576979 353.1422987 127.15497398 353.13701439 C126.33113671 353.13966622 125.50729943 353.14231804 124.65849739 353.14505023 C121.8679726 353.15277573 119.07749158 353.15330364 116.28695679 353.15390015 C114.27802877 353.15791264 112.26910157 353.1623505 110.26017535 353.1671797 C104.71617152 353.17917497 99.17217641 353.18480048 93.62816215 353.18936086 C87.65797587 353.19530581 81.68780007 353.20691843 75.71762085 353.21765137 C61.96973914 353.24104035 48.22185423 353.25558675 34.47395924 353.26788078 C29.71804814 353.27213428 24.96213744 353.27669997 20.20622683 353.2814641 C-5.07306608 353.30672401 -30.35235962 353.32877546 -55.63166237 353.34119225 C-61.49028145 353.34411365 -67.3489005 353.34708115 -73.20751953 353.35009766 C-73.93539092 353.35046857 -74.66326231 353.35083947 -75.41319041 353.35122162 C-99.01282561 353.36337729 -122.61238623 353.39432069 -146.21198641 353.43601918 C-170.46735151 353.47879826 -194.72267723 353.50543221 -218.97808109 353.51066696 C-222.40340069 353.51140742 -225.82872023 353.51231811 -229.25403976 353.51332474 C-230.26525734 353.51361066 -230.26525734 353.51361066 -231.29690355 353.51390236 C-242.15012819 353.51741716 -253.00325951 353.5377208 -263.85644986 353.56412137 C-274.76495328 353.59025646 -285.67334362 353.59758289 -296.58187349 353.58702008 C-302.4927195 353.58182267 -308.40326851 353.58479074 -314.31407166 353.60948563 C-319.72398116 353.63189954 -325.13337898 353.63129922 -330.54329698 353.61228175 C-332.50165082 353.60947071 -334.46003878 353.61514121 -336.41833754 353.63009469 C-339.0794913 353.64917455 -341.73881542 353.63743027 -344.39992714 353.61803246 C-345.16125991 353.63088168 -345.92259268 353.6437309 -346.70699614 353.65696949 C-352.52062702 353.56378017 -356.48035886 351.62620546 -361 348 C-366.41234759 341.64828949 -365.56640687 334.3264868 -365.51757812 326.33496094 C-365.52300394 324.84439919 -365.53012918 323.35384281 -365.53881836 321.86329651 C-365.55700656 317.82784265 -365.55000132 313.79279928 -365.53730202 309.75733852 C-365.52714336 305.52239855 -365.53657633 301.28749269 -365.54284668 297.05255127 C-365.55011795 289.93747686 -365.54055243 282.82256868 -365.52148438 275.70751953 C-365.49975004 267.50329462 -365.50674394 259.2994679 -365.52879 251.09525275 C-365.54699895 244.03424181 -365.54947458 236.9733501 -365.53903532 229.91232324 C-365.53282616 225.70283257 -365.53189253 221.49352838 -365.54518127 217.28404999 C-365.55681828 213.32102985 -365.54857256 209.35851751 -365.52560425 205.39555168 C-365.52035727 203.94887315 -365.52176138 202.5021512 -365.53065491 201.05549049 C-365.61530115 185.87556409 -361.89451106 176.10379118 -351.34765625 165.27734375 C-349.4511061 163.37520875 -347.53594177 161.49297106 -345.6171875 159.61328125 C-343.51069763 157.5099354 -341.5455032 155.39425129 -339.625 153.125 C-329.63226571 141.5820802 -319.47699181 129.99123561 -303.23828125 128.796875 C-292.95231917 128.63207988 -284.22053805 130.56653544 -276 137 C-274.32410237 138.65738429 -272.65871316 140.3254176 -271 142 C-270.22253418 142.77746582 -269.44506836 143.55493164 -268.64404297 144.35595703 C-261.76269531 151.23730469 -254.88134766 158.11865234 -248 165 C-237.36894876 141.14759062 -231.55075341 117.92765822 -229 92 C-229.76957031 91.87238281 -230.53914062 91.74476563 -231.33203125 91.61328125 C-235.42188342 90.67315418 -238.02348809 88.48801815 -240.3125 85 C-241 83 -241 83 -241 79 C-252.96720833 83.94003957 -263.8293042 88.86220797 -273.25 98 C-277.37982278 101.86677675 -277.37982278 101.86677675 -280.109375 102.453125 C-282 102.25 -282 102.25 -285 101 C-287 98 -287 98 -286.84375 95.28515625 C-285.84810175 91.40858133 -284.3132307 87.98287496 -282.5 84.4375 C-282.14325195 83.73786133 -281.78650391 83.03822266 -281.41894531 82.31738281 C-272.8489669 65.90091416 -261.33500409 53.26358542 -246 43 C-261.52763854 35.02983338 -276.32552899 32.01009424 -293.57421875 35.5546875 C-296.41348474 36.07590541 -299.12009945 36.1556703 -302 36 C-302.66 34.35 -303.32 32.7 -304 31 C-294.81606933 20.54932027 -279.49407634 13.08752108 -265.66479492 11.77905273 C-263.16822376 11.66112223 -260.68682291 11.62022392 -258.1875 11.625 C-257.30819824 11.62661133 -256.42889648 11.62822266 -255.52294922 11.62988281 C-246.07261329 11.80789468 -238.54693783 14.2888038 -231 20 C-230.84144531 19.10539062 -230.68289062 18.21078125 -230.51953125 17.2890625 C-227.11823652 -0.33753669 -227.11823652 -0.33753669 -221.0234375 -5.7578125 C-219 -7 -219 -7 -216.0625 -7.1875 C-212.25554376 -5.7113333 -211.14220499 -4.29562663 -209.16796875 -0.80078125 C-206.58838635 5.3850401 -204 13.27296371 -204 20 C-201.69 18.68 -199.38 17.36 -197 16 C-197.825 15.13375 -198.65 14.2675 -199.5 13.375 C-201.309799 11.14915526 -202.00785624 9.96988441 -202.75 7.125 C-201.58840334 2.28501393 -198.42586628 -0.52222665 -195 -4 C-194.29875 -4.804375 -193.5975 -5.60875 -192.875 -6.4375 C-190.52229503 -8.39808747 -189.05338639 -8.85105432 -186 -9 C-182.67432093 -8.20817165 -181.32141972 -7.38570366 -179.125 -4.75 C-177.62517808 -1.08376863 -177.60549015 0.25684197 -179 4 C-181.4798076 6.88095295 -184.17290847 9.46270145 -187 12 C-186.43192627 11.97905273 -185.86385254 11.95810547 -185.27856445 11.93652344 C-167.46164589 11.3674194 -151.49115103 13.50936966 -137 25 C-136.731875 23.88625 -136.46375 22.7725 -136.1875 21.625 C-135 18 -135 18 -132 16 C-125.00970874 15.22330097 -125.00970874 15.22330097 -121.5625 17.875 C-120.01347992 20.97304016 -119.68614604 22.80621719 -119.40234375 26.1953125 C-119.32363037 27.09523926 -119.24491699 27.99516602 -119.16381836 28.92236328 C-119.1097583 29.6079834 -119.05569824 30.29360352 -119 31 C-115.80823908 27.83760418 -112.6223919 24.66931241 -109.4375 21.5 C-108.54224609 20.613125 -107.64699219 19.72625 -106.72460938 18.8125 C-102.74085031 14.84333346 -98.82620745 10.87827888 -95.171875 6.6015625 C-71.02179042 -21.51250623 -28.28605728 -20.48520986 0 0 Z M-190 44 C-188.98292969 44.60134766 -188.98292969 44.60134766 -187.9453125 45.21484375 C-175.77657217 52.64755079 -167.28600436 61.59352166 -159 73 C-149.87445239 65.49677197 -141.58886598 57.04750516 -134 48 C-133.49339844 47.39800781 -132.98679688 46.79601562 -132.46484375 46.17578125 C-131.30408772 44.78869396 -130.15102057 43.39517645 -129 42 C-129.78375 41.566875 -130.5675 41.13375 -131.375 40.6875 C-134 39 -134 39 -136 36 C-151.20784775 30.4843179 -178.46722188 30.73151948 -190 44 Z M-194 79 C-194.6496875 80.1446875 -194.6496875 80.1446875 -195.3125 81.3125 C-197 84 -197 84 -200.0234375 84.8828125 C-203.19832995 86.66220389 -203.19832995 86.66220389 -203.65991211 89.51342773 C-204.01349606 92.86813765 -204.19548125 96.19124553 -204.3125 99.5625 C-204.43277642 101.85551177 -204.553859 104.1484814 -204.67578125 106.44140625 C-204.72557129 107.54500488 -204.77536133 108.64860352 -204.82666016 109.78564453 C-205.06514658 114.20805615 -205.50083967 118.6002493 -206 123 C-205.35804688 122.35675781 -204.71609375 121.71351563 -204.0546875 121.05078125 C-201.65011618 118.64536384 -199.23577286 116.24994849 -196.8203125 113.85546875 C-195.25514685 112.29954101 -193.6900443 110.7435498 -192.125 109.1875 C-191.34769531 108.41857422 -190.57039062 107.64964844 -189.76953125 106.85742188 C-183.77593334 100.88900715 -178.02527933 94.81599335 -173 88 C-179.1263968 83.82446698 -186.38126021 79 -194 79 Z " fill="#F4B6A2" transform="translate(365,159)"/>
<path d="M0 0 C3.7671301 3.30777309 7.26436544 6.8367013 10.75 10.4375 C11.64332031 11.34048828 12.53664063 12.24347656 13.45703125 13.17382812 C17.91712971 17.70946581 22.21528962 22.33224787 26.36425781 27.15258789 C29.10144051 30.2439702 32.05075403 33.11280045 35 36 C42.31571173 43.23189677 42.31571173 43.23189677 45.4375 46.9375 C48.89038596 51.02621151 52.70077198 54.73734698 56.5 58.5 C60.8653112 62.82328655 65.10613961 67.14676831 69.06640625 71.84765625 C72.50888068 75.67958233 76.22666402 79.24501916 79.88696289 82.86743164 C83.43702635 86.39478378 86.8008981 89.98881816 90.03125 93.8125 C92.89838692 96.99820768 95.95432076 99.98584545 99 103 C106.35711491 110.28104289 106.35711491 110.28104289 109.4375 113.9375 C112.8904923 118.02633743 116.70158842 121.73635649 120.5 125.5 C131.7875203 136.72729829 141.30154593 147.41426794 146 163 C146.17764389 163.54509216 146.35528778 164.09018433 146.53831482 164.65179443 C147.21330018 168.08487922 147.13017425 171.4973568 147.11352539 174.98144531 C147.11367142 175.7818222 147.11381744 176.5821991 147.1139679 177.40682983 C147.1132723 180.04728931 147.1054964 182.68767788 147.09765625 185.328125 C147.09579082 187.16086793 147.09436751 188.99361137 147.09336853 190.82635498 C147.08955322 195.64649842 147.07973133 200.46661165 147.06866455 205.28674316 C147.05842925 210.20678295 147.05386637 215.12682763 147.04882812 220.046875 C147.03810819 229.69792993 147.02104359 239.34896245 147 249 C143.64229123 246.76152748 143.7854035 246.59041601 143 243 C142.34 242.34 141.68 241.68 141 241 C140.16143291 239.96254199 139.32839601 238.92059741 138.5 237.875 C137.2625 236.451875 137.2625 236.451875 136 235 C135.34 235 134.68 235 134 235 C133.34 234.34 132.68 233.68 132 233 C131.01 232.67 130.02 232.34 129 232 C129 231.34 129 230.68 129 230 C127.02 230 125.04 230 123 230 C123 229.34 123 228.68 123 228 C121.68 228.33 120.36 228.66 119 229 C117.91867571 225.75602713 117.99682353 223.58417655 118.125 220.1875 C118.16398608 213.71581075 116.99582407 210.26553003 112.6875 205.375 C106.61620539 200.00966988 102.56239943 198.38925262 94.625 198.25 C93.79355469 198.22035156 92.96210938 198.19070313 92.10546875 198.16015625 C90.07082173 198.08999601 88.03540909 198.04267105 86 198 C85.76216797 197.00419922 85.76216797 197.00419922 85.51953125 195.98828125 C83.55833827 188.56608682 81.08394454 185.28211896 74.875 180.6875 C69.22128865 177.63177417 62.57426959 178.29792648 56.5625 179.9375 C55.03621784 180.5703487 53.51374997 181.21273439 52 181.875 C48.67399042 182.0828756 46.65025063 179.87076515 44 178 C37.04914581 174.02808332 29.18601086 173.6698476 21.44140625 175.65625 C13.95116975 178.66792222 7.8277632 183.51133371 4.5 190.9375 C3.97864345 192.28358867 3.47038529 193.63526375 3 195 C1.50339844 194.65388672 1.50339844 194.65388672 -0.0234375 194.30078125 C-32.35841066 186.91256889 -64.86340103 181.89779046 -98 180 C-98.71953857 179.95796448 -99.43907715 179.91592896 -100.18041992 179.87261963 C-114.86997612 179.03309783 -129.53791608 178.76272591 -144.25 178.75 C-145.3889975 178.74799591 -146.527995 178.74599182 -147.70150757 178.743927 C-173.08620393 178.73308877 -198.89989486 179.45483436 -224.01953125 183.484375 C-229.06173253 183.96391302 -231.91525872 183.80356311 -236.07421875 180.72265625 C-238.93937331 178.00341017 -241.4947292 175.05329879 -244 172 C-245.17175781 170.70255859 -245.17175781 170.70255859 -246.3671875 169.37890625 C-247.17542969 168.20134766 -247.17542969 168.20134766 -248 167 C-247.25148258 163.68513715 -246.33246679 161.09447879 -245 158 C-236.04084 136.36566478 -231.29109474 115.2883042 -229 92 C-229.76957031 91.87238281 -230.53914063 91.74476563 -231.33203125 91.61328125 C-235.42188342 90.67315418 -238.02348809 88.48801815 -240.3125 85 C-241 83 -241 83 -241 79 C-252.96720833 83.94003957 -263.8293042 88.86220797 -273.25 98 C-277.37982278 101.86677675 -277.37982278 101.86677675 -280.109375 102.453125 C-282 102.25 -282 102.25 -285 101 C-287 98 -287 98 -286.84375 95.28515625 C-285.84810175 91.40858133 -284.3132307 87.98287496 -282.5 84.4375 C-282.14325195 83.73786133 -281.78650391 83.03822266 -281.41894531 82.31738281 C-272.8489669 65.90091416 -261.33500409 53.26358542 -246 43 C-261.52763854 35.02983338 -276.32552899 32.01009424 -293.57421875 35.5546875 C-296.41348474 36.07590541 -299.12009945 36.1556703 -302 36 C-302.66 34.35 -303.32 32.7 -304 31 C-294.81606933 20.54932027 -279.49407634 13.08752108 -265.66479492 11.77905273 C-263.16822376 11.66112223 -260.68682291 11.62022392 -258.1875 11.625 C-257.30819824 11.62661133 -256.42889648 11.62822266 -255.52294922 11.62988281 C-246.07261329 11.80789468 -238.54693783 14.2888038 -231 20 C-230.84144531 19.10539062 -230.68289062 18.21078125 -230.51953125 17.2890625 C-227.11823652 -0.33753669 -227.11823652 -0.33753669 -221.0234375 -5.7578125 C-219 -7 -219 -7 -216.0625 -7.1875 C-212.25554376 -5.7113333 -211.14220499 -4.29562663 -209.16796875 -0.80078125 C-206.58838635 5.3850401 -204 13.27296371 -204 20 C-201.69 18.68 -199.38 17.36 -197 16 C-197.825 15.13375 -198.65 14.2675 -199.5 13.375 C-201.309799 11.14915526 -202.00785624 9.96988441 -202.75 7.125 C-201.58840334 2.28501393 -198.42586628 -0.52222665 -195 -4 C-193.948125 -5.2065625 -193.948125 -5.2065625 -192.875 -6.4375 C-190.52229503 -8.39808747 -189.05338639 -8.85105432 -186 -9 C-182.67432093 -8.20817165 -181.32141972 -7.38570366 -179.125 -4.75 C-177.62517808 -1.08376863 -177.60549015 0.25684197 -179 4 C-181.4798076 6.88095295 -184.17290847 9.46270145 -187 12 C-186.1478894 11.9685791 -186.1478894 11.9685791 -185.27856445 11.93652344 C-167.46164589 11.3674194 -151.49115103 13.50936966 -137 25 C-136.731875 23.88625 -136.46375 22.7725 -136.1875 21.625 C-135 18 -135 18 -132 16 C-125.00970874 15.22330097 -125.00970874 15.22330097 -121.5625 17.875 C-120.01347992 20.97304016 -119.68614604 22.80621719 -119.40234375 26.1953125 C-119.32363037 27.09523926 -119.24491699 27.99516602 -119.16381836 28.92236328 C-119.1097583 29.6079834 -119.05569824 30.29360352 -119 31 C-115.80823908 27.83760418 -112.6223919 24.66931241 -109.4375 21.5 C-108.54224609 20.613125 -107.64699219 19.72625 -106.72460938 18.8125 C-102.74085031 14.84333346 -98.82620745 10.87827888 -95.171875 6.6015625 C-71.02179042 -21.51250623 -28.28605728 -20.48520986 0 0 Z M-190 44 C-188.98292969 44.60134766 -188.98292969 44.60134766 -187.9453125 45.21484375 C-175.77657217 52.64755079 -167.28600436 61.59352166 -159 73 C-149.87445239 65.49677197 -141.58886598 57.04750516 -134 48 C-133.49339844 47.39800781 -132.98679688 46.79601562 -132.46484375 46.17578125 C-131.30408772 44.78869396 -130.15102057 43.39517645 -129 42 C-129.78375 41.566875 -130.5675 41.13375 -131.375 40.6875 C-134 39 -134 39 -136 36 C-151.20784775 30.4843179 -178.46722188 30.73151948 -190 44 Z M-194 79 C-194.6496875 80.1446875 -194.6496875 80.1446875 -195.3125 81.3125 C-197 84 -197 84 -200.0234375 84.8828125 C-203.19832995 86.66220389 -203.19832995 86.66220389 -203.65991211 89.51342773 C-204.01349606 92.86813765 -204.19548125 96.19124553 -204.3125 99.5625 C-204.43277642 101.85551177 -204.553859 104.1484814 -204.67578125 106.44140625 C-204.72557129 107.54500488 -204.77536133 108.64860352 -204.82666016 109.78564453 C-205.06514658 114.20805615 -205.50083967 118.6002493 -206 123 C-205.35804688 122.35675781 -204.71609375 121.71351563 -204.0546875 121.05078125 C-201.65011618 118.64536384 -199.23577286 116.24994849 -196.8203125 113.85546875 C-195.25514685 112.29954101 -193.6900443 110.7435498 -192.125 109.1875 C-191.34769531 108.41857422 -190.57039063 107.64964844 -189.76953125 106.85742188 C-183.77593334 100.88900715 -178.02527933 94.81599335 -173 88 C-179.1263968 83.82446698 -186.38126021 79 -194 79 Z " fill="#FBB8A3" transform="translate(365,159)"/>
<path d="M0 0 C14.08550067 11.68841999 23.25249946 26.82437236 25.59375 45.15234375 C26.69861488 64.69995315 22.27929285 83.00919671 9.4140625 98.2109375 C-3.83307687 112.33932434 -20.10249939 120.16152279 -39.51074219 121.12915039 C-57.65720902 121.61906106 -74.8564795 115.36717577 -88.0871582 102.93823242 C-101.55312929 89.75721109 -108.29740207 74.02255933 -109.40625 55.15234375 C-109.57680576 35.68766718 -102.61641485 19.26272586 -89.40625 5.15234375 C-65.41569198 -18.35014345 -26.6486502 -20.56081201 0 0 Z " fill="#FBD462" transform="translate(278.40625,46.84765625)"/>
<path d="M0 0 C2.91543783 1.48435203 5.74430343 3.06924942 8.58203125 4.6953125 C9.57203125 5.0253125 10.56203125 5.3553125 11.58203125 5.6953125 C13.06703125 4.7053125 13.06703125 4.7053125 14.58203125 3.6953125 C21.59651945 1.90685028 28.88397004 1.40533145 35.45703125 4.7578125 C39.46845073 7.31706937 42.75432154 10.23211066 44.58203125 14.6953125 C45.03721887 17.36113432 45.31394456 20.00048272 45.58203125 22.6953125 C47.35707031 22.57349609 47.35707031 22.57349609 49.16796875 22.44921875 C57.98404775 22.02585299 64.66307168 21.74420918 71.7265625 27.75 C76.74886217 33.01548471 78.72476825 37.4594561 78.70703125 44.8203125 C78.70960938 45.89539063 78.7121875 46.97046875 78.71484375 48.078125 C78.58203125 50.6953125 78.58203125 50.6953125 77.58203125 51.6953125 C69.94328295 51.60347394 62.52860137 49.6431419 55.14453125 47.8828125 C45.60524796 45.6907761 36.07671577 43.8229953 26.39453125 42.3828125 C25.346604 42.22385498 24.29867676 42.06489746 23.21899414 41.90112305 C6.98503461 39.58852438 -9.27301475 39.48183858 -25.64038086 39.45507812 C-29.1856286 39.44543447 -32.73027953 39.41433992 -36.27539062 39.3828125 C-57.15496037 39.2858557 -77.87145431 40.96447377 -98.35546875 45.1328125 C-99.37318359 45.32423828 -100.39089844 45.51566406 -101.43945312 45.71289062 C-112.0216572 47.79430441 -122.00477721 51.17304537 -131.73046875 55.8203125 C-132.53734131 56.20429199 -133.34421387 56.58827148 -134.17553711 56.98388672 C-143.125621 61.36144377 -151.50453624 66.71712645 -159.25 72.98828125 C-165.22494918 77.73336378 -165.22494918 77.73336378 -168.5 77.62890625 C-170.92439229 76.84176589 -173.12320173 75.80556958 -175.41796875 74.6953125 C-186.43941654 70.23887906 -197.47202222 68.32747388 -209.25097656 66.83447266 C-217.17142701 65.67329876 -221.57538335 64.1544384 -226.41796875 57.6953125 C-227.45400961 56.48215207 -228.49511762 55.27328669 -229.54296875 54.0703125 C-230.11273438 53.40773438 -230.6825 52.74515625 -231.26953125 52.0625 C-234.04942135 48.99956654 -236.97715493 46.10290148 -239.91796875 43.1953125 C-243.97202071 39.18680529 -247.8596054 35.14073341 -251.54296875 30.78515625 C-254.07163105 27.9667514 -256.77767596 25.34559998 -259.48046875 22.6953125 C-263.94702655 18.30608574 -267.84167766 13.8610663 -271.41796875 8.6953125 C-263.50038419 6.82624727 -255.53333018 6.01234123 -247.44335938 5.31762695 C-245.31714887 5.13489065 -243.19177919 4.94416205 -241.06640625 4.75195312 C-236.85213654 4.3752489 -232.63570381 4.03068743 -228.41796875 3.6953125 C-227.18699463 3.59452393 -225.95602051 3.49373535 -224.68774414 3.38989258 C-212.16992157 2.47773863 -199.65065148 2.49683936 -187.10546875 2.5078125 C-185.93766876 2.50808441 -184.76986877 2.50835632 -183.56668091 2.50863647 C-154.32856085 2.53984151 -125.44512891 4.02755934 -96.41796875 7.6953125 C-95.31614258 7.83163086 -94.21431641 7.96794922 -93.07910156 8.10839844 C-49.58044429 13.61407473 -49.58044429 13.61407473 -37.41796875 19.6953125 C-37.29615234 18.36886719 -37.29615234 18.36886719 -37.171875 17.015625 C-35.73938251 10.70672025 -30.46440791 5.70355036 -25.1484375 2.19921875 C-17.15640648 -1.84869307 -8.53580369 -3.25823821 0 0 Z " fill="#9ACDFD" transform="translate(405.41796875,334.3046875)"/>
<path d="M0 0 C1.911586 1.49602383 3.60050548 3.12225808 5.2956543 4.85693359 C7.3169319 6.91449928 9.37620954 8.93166766 11.43359375 10.953125 C27.52696094 26.84908434 27.52696094 26.84908434 34.0078125 35.13671875 C40.48790864 43.62204437 40.48790864 43.62204437 49.88671875 47.4765625 C48.89671875 48.4665625 48.89671875 48.4665625 47.88671875 49.4765625 C58.7752889 61.1758954 58.7752889 61.1758954 69.99609375 72.5546875 C71.79717394 74.38553761 73.47245782 76.27145986 75.13671875 78.2265625 C78.89236549 82.62578251 83.01619855 86.63699654 87.18066406 90.64550781 C90.93177499 94.31522031 93.93905247 98.13176815 96.88671875 102.4765625 C92.47784281 103.25459943 89.22575882 103.41897844 84.88671875 102.4765625 C78.93793046 101.74648394 73.046556 101.3536275 67.0546875 101.5390625 C64.88671875 101.4765625 64.88671875 101.4765625 62.1328125 100.9921875 C26.5158069 95.3346126 -15.77838477 105.25195612 -50.11328125 113.4765625 C-51.08104492 113.70520996 -52.04880859 113.93385742 -53.04589844 114.16943359 C-55.67696026 114.79691178 -58.30215198 115.44377393 -60.92578125 116.1015625 C-61.67786865 116.28323975 -62.42995605 116.46491699 -63.20483398 116.65209961 C-71.06187457 118.69864786 -76.97131265 123.26714725 -82.11328125 129.4765625 C-84.30870222 133.22075317 -85.46420092 137.1926323 -86.11328125 141.4765625 C-86.44328125 141.4765625 -86.77328125 141.4765625 -87.11328125 141.4765625 C-87.20624643 130.06245189 -87.27718045 118.64843239 -87.32052994 107.23401928 C-87.34134285 101.93297574 -87.36954486 96.63219256 -87.41503906 91.33129883 C-87.4587221 86.20897703 -87.48246563 81.08690458 -87.49279022 75.96441078 C-87.50014144 74.01691072 -87.51449605 72.06942323 -87.53620148 70.12203026 C-87.71656592 53.25857984 -85.57308409 42.18714067 -73.4609375 29.75390625 C-71.56438735 27.85177125 -69.64922302 25.96953356 -67.73046875 24.08984375 C-65.62397888 21.9864979 -63.65878445 19.87081379 -61.73828125 17.6015625 C-45.24749547 -1.44745974 -24.56307983 -15.66495763 0 0 Z " fill="#FED0BE" transform="translate(87.11328125,294.5234375)"/>
<path d="M0 0 C2.30905417 2.68148226 2.95257576 4.28863644 3.1875 7.8125 C1.38029697 12.66341339 -2.20190116 15.59122792 -6 19 C-5.1478894 18.9685791 -5.1478894 18.9685791 -4.27856445 18.93652344 C7.11360264 18.57263738 17.34071524 18.41336407 28 23 C29.02351562 23.42410156 30.04703125 23.84820312 31.1015625 24.28515625 C38.567304 27.677816 44.21010809 32.23572708 50 38 C49.67 39.32 49.34 40.64 49 42 C44.71933566 42.9305792 41.59342007 43.05146861 37.3125 42.0625 C22.68112973 38.84050896 7.14728716 42.02341855 -6 49 C-6.495 49.99 -6.495 49.99 -7 51 C-6.39414063 51.40089844 -5.78828125 51.80179688 -5.1640625 52.21484375 C11.49865457 63.51985641 21.76506624 76.90199536 30 95 C30.29640381 95.64525635 30.59280762 96.2905127 30.89819336 96.95532227 C33.02330421 101.71258145 33.02330421 101.71258145 32.8125 104.3125 C32 106 32 106 30 108 C27.3125 108.5625 27.3125 108.5625 24 108 C22.07066919 106.42467485 20.44759189 104.68865735 18.75390625 102.86328125 C10.71885417 94.32715688 -2.12857747 89.77171802 -13 86 C-13.37125 87.1446875 -13.37125 87.1446875 -13.75 88.3125 C-15.1292637 91.27791695 -16.19257315 92.38360273 -19 94 C-19.99 94 -20.98 94 -22 94 C-21.94779297 95.61841797 -21.94779297 95.61841797 -21.89453125 97.26953125 C-21.63774633 108.81963876 -22.72926627 119.68209093 -25 131 C-25.16628906 131.83402344 -25.33257812 132.66804687 -25.50390625 133.52734375 C-29.2296346 151.65922174 -34.95106298 169.2408942 -43.84765625 185.515625 C-44.22792969 186.33546875 -44.60820312 187.1553125 -45 188 C-44.67 188.66 -44.34 189.32 -44 190 C-47.30405824 190.68574794 -48.80628108 190.90963512 -52 190 C-56.10951783 186.71012465 -59.54440157 182.97608452 -63 179 C-63.78632812 178.13503906 -64.57265625 177.27007812 -65.3828125 176.37890625 C-65.91648438 175.59386719 -66.45015625 174.80882812 -67 174 C-66.25148258 170.68513715 -65.33246679 168.09447879 -64 165 C-55.04084 143.36566478 -50.29109474 122.2883042 -48 99 C-48.76957031 98.87238281 -49.53914063 98.74476563 -50.33203125 98.61328125 C-54.42188342 97.67315418 -57.02348809 95.48801815 -59.3125 92 C-60 90 -60 90 -60 86 C-71.96720833 90.94003957 -82.8293042 95.86220797 -92.25 105 C-96.37982278 108.86677675 -96.37982278 108.86677675 -99.109375 109.453125 C-101 109.25 -101 109.25 -104 108 C-106 105 -106 105 -105.84375 102.28515625 C-104.84810175 98.40858133 -103.3132307 94.98287496 -101.5 91.4375 C-101.14325195 90.73786133 -100.78650391 90.03822266 -100.41894531 89.31738281 C-91.8489669 72.90091416 -80.33500409 60.26358542 -65 50 C-80.52763854 42.02983338 -95.32552899 39.01009424 -112.57421875 42.5546875 C-115.41348474 43.07590541 -118.12009945 43.1556703 -121 43 C-121.66 41.35 -122.32 39.7 -123 38 C-113.81606933 27.54932027 -98.49407634 20.08752108 -84.66479492 18.77905273 C-82.16822376 18.66112223 -79.68682291 18.62022392 -77.1875 18.625 C-76.30819824 18.62661133 -75.42889648 18.62822266 -74.52294922 18.62988281 C-65.07261329 18.80789468 -57.54693783 21.2888038 -50 27 C-49.84144531 26.10539062 -49.68289062 25.21078125 -49.51953125 24.2890625 C-46.11823652 6.66246331 -46.11823652 6.66246331 -40.0234375 1.2421875 C-38 0 -38 0 -35.0625 -0.1875 C-31.25554376 1.2886667 -30.14220499 2.70437337 -28.16796875 6.19921875 C-25.58838635 12.3850401 -23 20.27296371 -23 27 C-20.69 25.68 -18.38 24.36 -16 23 C-16.825 22.13375 -17.65 21.2675 -18.5 20.375 C-20.309799 18.14915526 -21.00785624 16.96988441 -21.75 14.125 C-20.58908257 9.28784403 -17.42833187 6.4727595 -14 3 C-13.278125 2.195625 -12.55625 1.39125 -11.8125 0.5625 C-7.79831985 -2.89800013 -4.66446586 -2.183367 0 0 Z " fill="#A6D653" transform="translate(184,152)"/>
<path d="M0 0 C2.91543783 1.48435203 5.74430343 3.06924942 8.58203125 4.6953125 C9.57203125 5.0253125 10.56203125 5.3553125 11.58203125 5.6953125 C12.57203125 5.0353125 13.56203125 4.3753125 14.58203125 3.6953125 C21.59651945 1.90685028 28.88397004 1.40533145 35.45703125 4.7578125 C39.46845073 7.31706937 42.75432154 10.23211066 44.58203125 14.6953125 C45.03721887 17.36113432 45.31394456 20.00048272 45.58203125 22.6953125 C47.35707031 22.57349609 47.35707031 22.57349609 49.16796875 22.44921875 C57.98404775 22.02585299 64.66307168 21.74420918 71.7265625 27.75 C76.74886217 33.01548471 78.72476825 37.4594561 78.70703125 44.8203125 C78.71089844 46.43292969 78.71089844 46.43292969 78.71484375 48.078125 C78.58203125 50.6953125 78.58203125 50.6953125 77.58203125 51.6953125 C70.02832029 51.59598691 62.69738121 49.68913072 55.39453125 47.9453125 C47.76795343 46.15840771 40.17438679 44.55493023 32.41796875 43.46875 C31.40359489 43.32623055 31.40359489 43.32623055 30.36872864 43.18083191 C29.69476547 43.08627213 29.02080231 42.99171234 28.32641602 42.89428711 C7.98546552 40.03521058 7.98546552 40.03521058 -1.04296875 33.81640625 C-11.78706499 27.06404021 -25.34918731 23.49335552 -37.41796875 19.6953125 C-36.74455374 12.36257132 -32.68366875 8.51462662 -27.41796875 3.6953125 C-19.22397395 -1.70623657 -9.30480549 -3.55177718 0 0 Z " fill="#A4D452" transform="translate(405.41796875,334.3046875)"/>
<path d="M0 0 C3.234375 0.046875 3.234375 0.046875 6.75 0.75 C7.92046875 0.97171875 9.0909375 1.1934375 10.296875 1.421875 C11.18890625 1.61265625 12.0809375 1.8034375 13 2 C13.40890792 14.6761455 12.49491328 26.56472357 10 39 C9.83371094 39.83402344 9.66742188 40.66804688 9.49609375 41.52734375 C5.7703654 59.65922174 0.04893702 77.2408942 -8.84765625 93.515625 C-9.22792969 94.33546875 -9.60820312 95.1553125 -10 96 C-9.505 96.99 -9.505 96.99 -9 98 C-12.30405824 98.68574794 -13.80628108 98.90963512 -17 98 C-21.10951783 94.71012465 -24.54440157 90.97608452 -28 87 C-29.17949219 85.70255859 -29.17949219 85.70255859 -30.3828125 84.37890625 C-30.91648437 83.59386719 -31.45015625 82.80882812 -32 82 C-31.25148258 78.68513715 -30.33246679 76.09447879 -29 73 C-19.91128595 51.05282118 -15.18540408 29.65378537 -13 6 C-12.39671875 5.90203125 -11.7934375 5.8040625 -11.171875 5.703125 C-5.98910266 4.8455615 -5.98910266 4.8455615 -1.859375 1.828125 C-1.24578125 1.22484375 -0.6321875 0.6215625 0 0 Z " fill="#D56D54" transform="translate(149,244)"/>
<path d="M0 0 C6.11539274 4.17885171 13.60616252 10.81848757 16 18 C15.40832031 18.15855469 14.81664062 18.31710938 14.20703125 18.48046875 C8.95585362 20.0309796 5.34933649 21.43272296 2 26 C1.73957523 27.3105464 1.52062692 28.62977972 1.3359375 29.953125 C0.46106706 33.67992859 0.20895179 33.86949764 -3.30859375 36.06640625 C-4.67471552 36.59235144 -6.05202518 37.08988328 -7.4375 37.5625 C-8.8998249 38.13247028 -10.35947383 38.70935231 -11.81640625 39.29296875 C-12.53199707 39.57575684 -13.24758789 39.85854492 -13.98486328 40.14990234 C-21.08686228 43.14592373 -26.76670689 47.68137034 -32.25 53 C-36.37982278 56.86677675 -36.37982278 56.86677675 -39.109375 57.453125 C-41 57.25 -41 57.25 -44 56 C-46 53 -46 53 -45.84375 50.28515625 C-44.84810175 46.40858133 -43.3132307 42.98287496 -41.5 39.4375 C-41.14325195 38.73786133 -40.78650391 38.03822266 -40.41894531 37.31738281 C-34.34510838 25.68246977 -16.09991341 -4.81315949 0 0 Z " fill="#94C53F" transform="translate(124,204)"/>
<path d="M0 0 C2.25472346 1.39060356 4.20296064 2.73121247 6.25 4.375 C7.09208008 5.0400354 7.09208008 5.0400354 7.95117188 5.71850586 C16.39850167 12.56578099 23.15804533 20.22778753 28 30 C28.66375611 31.24184416 29.33213313 32.48122426 30.00390625 33.71875 C38.14364054 48.74314526 38.14364054 48.74314526 37.75 52.1875 C37 54 37 54 35 56 C32.3125 56.5625 32.3125 56.5625 29 56 C27.07066919 54.42467485 25.44759189 52.68865735 23.75390625 50.86328125 C15.71885417 42.32715688 2.87142253 37.77171802 -8 34 C-7.93039063 33.02160156 -7.93039063 33.02160156 -7.859375 32.0234375 C-7.68047344 27.69146394 -7.74584329 24.60776604 -9.4375 20.5625 C-12.87142513 17.12857487 -16.35505468 16.13146104 -21 15 C-20.62403791 12.21788056 -20.32681541 10.4120716 -18.5625 8.1875 C-17 7 -17 7 -15 7 C-15 6.34 -15 5.68 -15 5 C-14.34 5 -13.68 5 -13 5 C-13 4.34 -13 3.68 -13 3 C-5.91027124 -1.67922098 -5.91027124 -1.67922098 0 0 Z " fill="#8EBF3B" transform="translate(179,204)"/>
<path d="M0 0 C4.40830916 2.16407904 7.12843553 4.42506462 9 9 C9.5751522 14.94323941 8.87167256 18.76945356 6 24 C3.66759107 26.2588645 2.37623605 26.9524593 -0.875 27.36328125 C-1.90625 27.34652344 -2.9375 27.32976562 -4 27.3125 C-5.03125 27.30863281 -6.0625 27.30476563 -7.125 27.30078125 C-9.92633186 27.00770713 -11.61170203 26.44101632 -14 25 C-14.226875 25.61875 -14.45375 26.2375 -14.6875 26.875 C-16.47621004 29.77100673 -17.72178232 30.09325894 -21 31 C-25.7777402 32.08424732 -28.86578522 32.54610341 -33.375 30.375 C-36.64466154 27.41673479 -38.69254925 25.34431198 -39.28125 20.85546875 C-39.47141995 16.07744877 -39.15709695 12.78851634 -36 9 C-32.84856045 5.70198186 -30.59051398 3.68538183 -26 3.5625 C-22.44445137 3.78814059 -19.31445454 4.67421818 -16 6 C-15.67 5.01 -15.34 4.02 -15 3 C-10.597772 -0.83419858 -5.5388312 -0.79886988 0 0 Z " fill="#FEC5B1" transform="translate(163,219)"/>
<path d="M0 0 C4.40830916 2.16407904 7.12843553 4.42506462 9 9 C9.5751522 14.94323941 8.87167256 18.76945356 6 24 C3.65481082 26.27636873 2.36425126 26.95452971 -0.91015625 27.36328125 C-1.95042969 27.34652344 -2.99070313 27.32976562 -4.0625 27.3125 C-5.10535156 27.30863281 -6.14820313 27.30476563 -7.22265625 27.30078125 C-10 27 -10 27 -13 25 C-13.21440191 21.97603979 -12.9928271 19.06720442 -12.8125 16.04296875 C-13.02879235 12.53272416 -14.00990803 10.85080675 -16 8 C-16.33 7.34 -16.66 6.68 -17 6 C-11.31965368 0.17017088 -8.08118051 -0.89377112 0 0 Z " fill="#FAB19A" transform="translate(163,219)"/>
<path d="M0 0 C2.38436958 2.76894532 3.04295633 4.17817756 2.8515625 7.83984375 C1.27158511 13.70315433 -3.32313728 17.36394199 -8 21 C-11.22036344 22.4769253 -12.34086144 22.43413508 -16 22 C-19.37746163 19.67799513 -20.69378512 18.14830581 -21.75 14.1875 C-20.60086285 9.3036671 -17.4571298 6.50193062 -14 3 C-13.278125 2.195625 -12.55625 1.39125 -11.8125 0.5625 C-7.79831985 -2.89800013 -4.66446586 -2.183367 0 0 Z " fill="#FCDE63" transform="translate(184,152)"/>
<path d="M0 0 C3.40919329 1.27141532 5.7526231 3.49941223 8.3046875 6.0078125 C8.78945557 6.48089844 9.27422363 6.95398437 9.77368164 7.44140625 C12.91695082 10.76437078 14.20178843 13.3088922 14.3671875 17.8828125 C12.23675272 22.44802989 12.23675272 22.44802989 9.3671875 23.8828125 C5.77343252 24.4578133 3.36780415 24.54430023 0.26953125 22.49609375 C-1.80480386 20.70867602 -3.732375 18.85333121 -5.6328125 16.8828125 C-6.4578125 16.0371875 -7.2828125 15.1915625 -8.1328125 14.3203125 C-10.06255721 11.18447735 -10.23675419 9.50646264 -9.6328125 5.8828125 C-7.419624 1.64086787 -4.97368813 -0.28152952 0 0 Z " fill="#FCDE63" transform="translate(172.6328125,26.1171875)"/>
<path d="M0 0 C1.21429688 -0.02578125 2.42859375 -0.0515625 3.6796875 -0.078125 C7.38324245 0.27459452 9.2077274 0.98632399 12.125 3.25 C13.79854451 6.59708903 14.3505613 8.34775482 13.4375 12 C12.125 14.25 12.125 14.25 9.125 16.25 C6.16071385 16.69634955 3.18194661 16.6202657 0.1875 16.625 C-0.62396484 16.64949219 -1.43542969 16.67398438 -2.27148438 16.69921875 C-6.12623603 16.7181921 -8.20811682 16.72400004 -11.4140625 14.4453125 C-13.5424367 11.24706035 -13.34445928 9.00567425 -12.875 5.25 C-9.86231314 -0.2015286 -5.79398939 0.07349669 0 0 Z " fill="#FCDE63" transform="translate(323.875,91.75)"/>
<path d="M0 0 C3.47664424 2.13947338 3.91627584 3.65314277 4.875 7.625 C4.66365183 13.2362938 0.23839648 16.39864716 -3.6171875 19.99609375 C-7.49005622 23.25311285 -9.9397724 23.43622652 -15 23 C-17.4375 21.4375 -17.4375 21.4375 -19 19 C-19.6875 15.75 -19.6875 15.75 -19 12 C-16.98419232 8.98754997 -14.60041523 6.51318957 -12 4 C-11.175 3.175 -10.35 2.35 -9.5 1.5 C-6.08810709 -0.54713574 -3.90879079 -0.56855139 0 0 Z " fill="#FCDE63" transform="translate(306,27)"/>
<path d="M0 0 C1.21429688 -0.02578125 2.42859375 -0.0515625 3.6796875 -0.078125 C7.38324245 0.27459452 9.2077274 0.98632399 12.125 3.25 C13.79854451 6.59708903 14.3505613 8.34775482 13.4375 12 C12.125 14.25 12.125 14.25 9.125 16.25 C6.16071385 16.69634955 3.18194661 16.6202657 0.1875 16.625 C-0.62396484 16.64949219 -1.43542969 16.67398438 -2.27148438 16.69921875 C-6.12623603 16.7181921 -8.20811682 16.72400004 -11.4140625 14.4453125 C-13.5424367 11.24706035 -13.34445928 9.00567425 -12.875 5.25 C-9.86231314 -0.2015286 -5.79398939 0.07349669 0 0 Z " fill="#FCDE63" transform="translate(148.875,91.75)"/>
<path d="M0 0 C0.66 -0.02191406 1.32 -0.04382812 2 -0.06640625 C5.23501183 0.95085333 6.27001872 2.70708036 8 5.5625 C8.49609375 9.15625 8.49609375 9.15625 8.4375 13.0625 C8.43621094 14.3515625 8.43492187 15.640625 8.43359375 16.96875 C7.98540009 20.68350829 7.25049753 22.61319273 5 25.5625 C1.90826248 27.10836876 -0.59429552 26.85609521 -4 26.5625 C-6.1953125 25.10546875 -6.1953125 25.10546875 -8 22.5625 C-8.58697897 19.5503711 -8.55865759 16.62247077 -8.5 13.5625 C-8.51546875 12.75554688 -8.5309375 11.94859375 -8.546875 11.1171875 C-8.52173943 7.30914866 -8.45293433 5.20515024 -6.21875 2.03515625 C-3.90172414 0.49727113 -2.75070744 -0.00537248 0 0 Z " fill="#FCDD62" transform="translate(237,-0.5625)"/>
<path d="M0 0 C3.1880347 1.00248747 4.25704823 2.84929689 6 5.62890625 C7.11731518 10.98242255 7.21146648 16.35486861 4.6015625 21.25390625 C0.33918958 26.46554126 0.33918958 26.46554126 -3.59375 26.9453125 C-6.8687094 26.51467661 -7.98413422 25.1674039 -10 22.62890625 C-10 21.96890625 -10 21.30890625 -10 20.62890625 C-8.68 20.29890625 -7.36 19.96890625 -6 19.62890625 C-6.39638895 16.00594966 -6.39638895 16.00594966 -8.5625 13.25390625 C-10 11.62890625 -10 11.62890625 -10.4375 8.19140625 C-10 4.62890625 -10 4.62890625 -8.5 2.19140625 C-5.49828003 0.31533127 -3.47195248 0.11527967 0 0 Z " fill="#FBDD62" transform="translate(239,174.37109375)"/>
<path d="M0 0 C0 0.66 0 1.32 0 2 C0.66 2.33 1.32 2.66 2 3 C1.54109375 3.50789062 1.0821875 4.01578125 0.609375 4.5390625 C-2.94679662 8.52854915 -6.16708282 12.46733251 -9 17 C-11.97 16.67 -14.94 16.34 -18 16 C-17.62403791 13.21788056 -17.32681541 11.4120716 -15.5625 9.1875 C-14 8 -14 8 -12 8 C-12 7.34 -12 6.68 -12 6 C-11.34 6 -10.68 6 -10 6 C-10 5.34 -10 4.68 -10 4 C-3.375 0 -3.375 0 0 0 Z " fill="#55A75A" transform="translate(176,203)"/>
<path d="M0 0 C1.74023438 0.34804687 1.74023438 0.34804687 3.515625 0.703125 C4.68609375 0.92484375 5.8565625 1.1465625 7.0625 1.375 C7.95453125 1.56578125 8.8465625 1.7565625 9.765625 1.953125 C9.765625 5.583125 9.765625 9.213125 9.765625 12.953125 C9.435625 12.293125 9.105625 11.633125 8.765625 10.953125 C8.105625 10.953125 7.445625 10.953125 6.765625 10.953125 C6.765625 10.293125 6.765625 9.633125 6.765625 8.953125 C4.125625 8.293125 1.485625 7.633125 -1.234375 6.953125 C-1.234375 7.613125 -1.234375 8.273125 -1.234375 8.953125 C-2.554375 8.953125 -3.874375 8.953125 -5.234375 8.953125 C-5.234375 8.293125 -5.234375 7.633125 -5.234375 6.953125 C-6.224375 6.953125 -7.214375 6.953125 -8.234375 6.953125 C-6.69562844 2.33688531 -5.09369603 -0.07382168 0 0 Z " fill="#8E4331" transform="translate(152.234375,244.046875)"/>
<path d="M0 0 C2.97 1.65 5.94 3.3 9 5 C8.29488281 5.54140625 7.58976562 6.0828125 6.86328125 6.640625 C3.77564707 9.18486926 0.98855952 11.90032396 -1.8125 14.75 C-2.31458984 15.25660156 -2.81667969 15.76320312 -3.33398438 16.28515625 C-4.55831058 17.52114271 -5.77948622 18.7602487 -7 20 C-8.32 19.01 -9.64 18.02 -11 17 C-10.41734375 16.4328125 -9.8346875 15.865625 -9.234375 15.28125 C-7.10036326 13.10246878 -5.15650806 10.87906134 -3.25 8.5 C-2.63640625 7.7471875 -2.0228125 6.994375 -1.390625 6.21875 C0.3540475 3.87153657 0.3540475 3.87153657 0 0 Z " fill="#73B85C" transform="translate(176,203)"/>
<path d="M0 0 C1.32 0.66 2.64 1.32 4 2 C4.66 1.34 5.32 0.68 6 0 C6 7.92 6 15.84 6 24 C4.68 23.34 3.36 22.68 2 22 C2.05220703 20.78763672 2.05220703 20.78763672 2.10546875 19.55078125 C2.14607422 17.94783203 2.14607422 17.94783203 2.1875 16.3125 C2.23970703 14.72888672 2.23970703 14.72888672 2.29296875 13.11328125 C1.9638655 9.61601067 0.98409076 7.85369225 -1 5 C-1.33 4.34 -1.66 3.68 -2 3 C-1.34 2.01 -0.68 1.02 0 0 Z " fill="#EEA38E" transform="translate(148,222)"/>
<path d="M0 0 C-0.47470234 4.24325763 -2.79898839 5.93227411 -5.9375 8.625 C-6.83339844 9.40101563 -7.72929687 10.17703125 -8.65234375 10.9765625 C-9.42707031 11.64429688 -10.20179688 12.31203125 -11 13 C-11.66 13.66 -12.32 14.32 -13 15 C-15.125 14.625 -15.125 14.625 -17 14 C-16.00102287 11.00306862 -15.34869747 9.97290587 -13 8 C-12.34 8 -11.68 8 -11 8 C-11 7.34 -11 6.68 -11 6 C-10.34 6 -9.68 6 -9 6 C-9 5.34 -9 4.68 -9 4 C-2.25 0 -2.25 0 0 0 Z " fill="#3B9952" transform="translate(175,203)"/>
<path d="M0 0 C2.475 0.99 2.475 0.99 5 2 C3.94232422 2.81210938 3.94232422 2.81210938 2.86328125 3.640625 C-0.22435293 6.18486926 -3.01144048 8.90032396 -5.8125 11.75 C-6.31458984 12.25660156 -6.81667969 12.76320312 -7.33398438 13.28515625 C-8.55831058 14.52114271 -9.77948622 15.7602487 -11 17 C-11.66 16.34 -12.32 15.68 -13 15 C-9.48876683 10.8130656 -5.86609006 6.86609006 -2 3 C-1.34 2.01 -0.68 1.02 0 0 Z " fill="#85C25C" transform="translate(180,206)"/>
<path d="M0 0 C0.99 0.495 0.99 0.495 2 1 C1.01 1.495 1.01 1.495 0 2 C0 1.34 0 0.68 0 0 Z M-2 3 C-1.67 3.66 -1.34 4.32 -1 5 C-0.01 5.33 0.98 5.66 2 6 C2 6.99 2 7.98 2 9 C0.68 9 -0.64 9 -2 9 C-2 8.34 -2 7.68 -2 7 C-2.99 7 -3.98 7 -5 7 C-4.67 6.01 -4.34 5.02 -4 4 C-3.34 3.67 -2.68 3.34 -2 3 Z " fill="#9E4E3A" transform="translate(149,244)"/>
<path d="M0 0 C-2.79061105 2.79061105 -5.52776722 4.30509637 -9.1875 5.625 C-9.90292969 5.88539063 -10.61835938 6.14578125 -11.35546875 6.4140625 C-11.89816406 6.60742188 -12.44085938 6.80078125 -13 7 C-13 6.34 -13 5.68 -13 5 C-10.91796875 3.45703125 -10.91796875 3.45703125 -8.1875 1.8125 C-7.29417969 1.26207031 -6.40085937 0.71164063 -5.48046875 0.14453125 C-3 -1 -3 -1 0 0 Z " fill="#EAA08F" transform="translate(292,152)"/>
<path d="M0 0 C0 3.39593478 -0.52165948 4.06619881 -2.5 6.6875 C-2.9640625 7.31011719 -3.428125 7.93273437 -3.90625 8.57421875 C-4.2671875 9.04472656 -4.628125 9.51523438 -5 10 C-6.32 9.67 -7.64 9.34 -9 9 C-8.2575 8.443125 -7.515 7.88625 -6.75 7.3125 C-4.08292005 5.06972822 -2.08443768 2.77925025 0 0 Z " fill="#65AF5A" transform="translate(172,210)"/>
<path d="M0 0 C0 0.66 0 1.32 0 2 C0.99 2.33 1.98 2.66 3 3 C1.02 3 -0.96 3 -3 3 C-3 3.66 -3 4.32 -3 5 C-4.32 4.67 -5.64 4.34 -7 4 C-7 3.34 -7 2.68 -7 2 C-2.25 0 -2.25 0 0 0 Z " fill="#BE644E" transform="translate(144,249)"/>
<path d="M0 0 C2 2 2 2 2.125 4.625 C2.08375 5.40875 2.0425 6.1925 2 7 C0.68 6.34 -0.64 5.68 -2 5 C-1.125 1.125 -1.125 1.125 0 0 Z " fill="#DC856E" transform="translate(152,239)"/>
<path d="M0 0 C1.41377341 2.63904371 2.37240135 5.07120629 3 8 C1.35 6.35 -0.3 4.7 -2 3 C-1.34 2.01 -0.68 1.02 0 0 Z " fill="#DE9B81" transform="translate(148,222)"/>
<path d="M0 0 C0.66 0.33 1.32 0.66 2 1 C0.95125002 3.62187494 0.35068687 4.79371361 -2.125 6.25 C-2.74375 6.4975 -3.3625 6.745 -4 7 C-3.43628586 3.73045798 -2.50037734 2.17424117 0 0 Z " fill="#459941" transform="translate(162,211)"/>
</svg>
